<svg width="2401.51103515625px" height="229.60000610351562px" xmlns="http://www.w3.org/2000/svg" viewBox="-950.7555175781249 -39.80000305175781 2401.51103515625 229.60000610351562" style="background: rgba(0, 0, 0, 0);" preserveAspectRatio="xMidYMid"><defs><filter id="editing-hole" x="-100%" y="-100%" width="300%" height="300%"><feFlood flood-color="#000" result="black"></feFlood><feMorphology operator="dilate" radius="2" in="SourceGraphic" result="erode"></feMorphology><feGaussianBlur in="erode" stdDeviation="4" result="blur"></feGaussianBlur><feOffset in="blur" dx="2" dy="2" result="offset"></feOffset><feComposite operator="atop" in="offset" in2="black" result="merge"></feComposite><feComposite operator="in" in="merge" in2="SourceGraphic" result="inner-shadow"></feComposite></filter></defs><g filter="url(#editing-hole)"><g transform="translate(-628.1917409896851, 135.13499760627747)"><path d="M63.88-77.98L56.13-68.71L56.13-68.71Q53.09-72.01 49.72-73.72L49.72-73.72L49.72-73.72Q46.36-75.44 41.91-75.44L41.91-75.44L41.91-75.44Q36.45-75.44 32.70-72.96L32.70-72.96L32.70-72.96Q28.96-70.48 26.67-66.10L26.67-66.10L26.67-66.10Q24.38-61.72 23.37-55.88L23.37-55.88L23.37-55.88Q22.35-50.04 22.35-43.31L22.35-43.31L22.35-43.31Q22.35-36.58 23.30-30.73L23.30-30.73L23.30-30.73Q24.26-24.89 26.61-20.45L26.61-20.45L26.61-20.45Q28.96-16.00 32.96-13.46L32.96-13.46L32.96-13.46Q36.96-10.92 43.05-10.92L43.05-10.92L43.05-10.92Q45.97-10.92 48.64-11.43L48.64-11.43L48.64-11.43Q51.31-11.94 53.53-12.51L53.53-12.51L53.53-12.51Q55.75-13.08 57.21-13.59L57.21-13.59L57.21-13.59Q58.67-14.10 59.05-14.22L59.05-14.22L62.61-3.56L60.96-2.92L60.96-2.92Q59.31-2.29 56.32-1.46L56.32-1.46L56.32-1.46Q53.34-0.64 49.21 0.06L49.21 0.06L49.21 0.06Q45.09 0.76 40.13 0.76L40.13 0.76L40.13 0.76Q23.11 0.76 14.54-10.10L14.54-10.10L14.54-10.10Q5.97-20.96 5.97-41.91L5.97-41.91L5.97-41.91Q5.97-51.94 8.26-60.26L8.26-60.26L8.26-60.26Q10.54-68.58 15.18-74.55L15.18-74.55L15.18-74.55Q19.81-80.52 26.86-83.82L26.86-83.82L26.86-83.82Q33.91-87.12 43.43-87.12L43.43-87.12L43.43-87.12Q51.05-87.12 55.94-84.33L55.94-84.33L55.94-84.33Q60.83-81.53 63.88-77.98L63.88-77.98ZM88.01 0.51L88.01 0.51Q81.28 0.51 77.72-3.49L77.72-3.49L77.72-3.49Q74.17-7.49 74.17-13.84L74.17-13.84L74.17-63.25L88.65-63.25L88.65-15.11L88.65-15.11Q88.65-12.19 89.54-11.18L89.54-11.18L89.54-11.18Q90.42-10.16 92.20-10.16L92.20-10.16L92.20-10.16Q92.71-10.16 93.28-10.16L93.28-10.16L93.28-10.16Q93.85-10.16 94.36-10.29L94.36-10.29L94.36-10.29Q94.87-10.29 95.50-10.41L95.50-10.41L97.03-1.27L97.03-1.27Q96.14-0.76 94.74-0.38L94.74-0.38L94.74-0.38Q93.60 0 91.88 0.25L91.88 0.25L91.88 0.25Q90.17 0.51 88.01 0.51L88.01 0.51ZM81.66-91.44L81.66-91.44Q85.73-91.44 87.88-89.03L87.88-89.03L87.88-89.03Q90.04-86.61 90.04-82.80L90.04-82.80L90.04-82.80Q90.04-78.99 87.82-76.45L87.82-76.45L87.82-76.45Q85.60-73.91 81.28-73.91L81.28-73.91L81.28-73.91Q77.22-73.91 74.99-76.39L74.99-76.39L74.99-76.39Q72.77-78.87 72.77-82.42L72.77-82.42L72.77-82.42Q72.77-86.36 74.99-88.90L74.99-88.90L74.99-88.90Q77.22-91.44 81.66-91.44L81.66-91.44ZM135.51-50.04L135.51-50.04Q133.22-50.04 130.94-48.90L130.94-48.90L130.94-48.90Q128.65-47.75 126.87-45.78L126.87-45.78L126.87-45.78Q125.09-43.81 123.95-41.02L123.95-41.02L123.95-41.02Q122.81-38.23 122.81-34.80L122.81-34.80L122.81 0L108.33 0L108.33-32.00L108.33-32.00Q108.33-39.62 107.32-44.77L107.32-44.77L107.32-44.77Q106.30-49.91 105.16-53.09L105.16-53.09L105.16-53.09Q103.76-56.77 102.11-59.05L102.11-59.05L113.54-63.63L113.54-63.63Q114.68-62.23 115.95-60.20L115.95-60.20L115.95-60.20Q116.97-58.42 117.98-56.01L117.98-56.01L117.98-56.01Q119.00-53.59 119.63-50.29L119.63-50.29L119.63-50.29Q122.17-57.66 127-60.90L127-60.90L127-60.90Q131.83-64.14 137.92-64.14L137.92-64.14L137.92-64.14Q140.84-64.14 143.38-63.44L143.38-63.44L143.38-63.44Q145.92-62.74 145.80-62.74L145.80-62.74L141.73-48.64L141.73-48.64Q141.86-48.64 140.27-49.34L140.27-49.34L140.27-49.34Q138.68-50.04 135.51-50.04L135.51-50.04ZM182.37-50.04L182.37-50.04Q180.09-50.04 177.80-48.90L177.80-48.90L177.80-48.90Q175.51-47.75 173.74-45.78L173.74-45.78L173.74-45.78Q171.96-43.81 170.81-41.02L170.81-41.02L170.81-41.02Q169.67-38.23 169.67-34.80L169.67-34.80L169.67 0L155.19 0L155.19-32.00L155.19-32.00Q155.19-39.62 154.18-44.77L154.18-44.77L154.18-44.77Q153.16-49.91 152.02-53.09L152.02-53.09L152.02-53.09Q150.62-56.77 148.97-59.05L148.97-59.05L160.40-63.63L160.40-63.63Q161.54-62.23 162.81-60.20L162.81-60.20L162.81-60.20Q163.83-58.42 164.85-56.01L164.85-56.01L164.85-56.01Q165.86-53.59 166.50-50.29L166.50-50.29L166.50-50.29Q169.04-57.66 173.86-60.90L173.86-60.90L173.86-60.90Q178.69-64.14 184.78-64.14L184.78-64.14L184.78-64.14Q187.71-64.14 190.25-63.44L190.25-63.44L190.25-63.44Q192.79-62.74 192.66-62.74L192.66-62.74L188.59-48.64L188.59-48.64Q188.72-48.64 187.13-49.34L187.13-49.34L187.13-49.34Q185.55-50.04 182.37-50.04L182.37-50.04ZM222.25-64.77L222.25-64.77Q236.85-64.77 243.46-56.13L243.46-56.13L243.46-56.13Q250.06-47.50 250.06-32.38L250.06-32.38L250.06-32.38Q250.06-25.27 248.28-19.11L248.28-19.11L248.28-19.11Q246.51-12.95 242.89-8.45L242.89-8.45L242.89-8.45Q239.27-3.94 233.81-1.33L233.81-1.33L233.81-1.33Q228.35 1.27 221.11 1.27L221.11 1.27L221.11 1.27Q213.87 1.27 208.60-0.95L208.60-0.95L208.60-0.95Q203.33-3.17 199.90-7.37L199.90-7.37L199.90-7.37Q196.47-11.56 194.88-17.53L194.88-17.53L194.88-17.53Q193.29-23.50 193.29-30.99L193.29-30.99L193.29-30.99Q193.29-38.23 195.07-44.39L195.07-44.39L195.07-44.39Q196.85-50.55 200.47-55.05L200.47-55.05L200.47-55.05Q204.09-59.56 209.55-62.17L209.55-62.17L209.55-62.17Q215.01-64.77 222.25-64.77L222.25-64.77ZM220.98-54.10L220.98-54.10Q217.30-54.10 214.95-52.45L214.95-52.45L214.95-52.45Q212.60-50.80 211.26-47.82L211.26-47.82L211.26-47.82Q209.93-44.83 209.42-40.83L209.42-40.83L209.42-40.83Q208.91-36.83 208.91-32.26L208.91-32.26L208.91-32.26Q208.91-27.56 209.49-23.37L209.49-23.37L209.49-23.37Q210.06-19.18 211.58-16.07L211.58-16.07L211.58-16.07Q213.11-12.95 215.71-11.18L215.71-11.18L215.71-11.18Q218.31-9.40 222.38-9.40L222.38-9.40L222.38-9.40Q226.06-9.40 228.41-11.05L228.41-11.05L228.41-11.05Q230.76-12.70 232.09-15.68L232.09-15.68L232.09-15.68Q233.43-18.67 233.93-22.61L233.93-22.61L233.93-22.61Q234.44-26.54 234.44-31.12L234.44-31.12L234.44-31.12Q234.44-35.81 233.87-40.01L233.87-40.01L233.87-40.01Q233.30-44.20 231.77-47.37L231.77-47.37L231.77-47.37Q230.25-50.55 227.65-52.32L227.65-52.32L227.65-52.32Q225.04-54.10 220.98-54.10L220.98-54.10ZM305.18-56.13L297.05-48.39L297.05-48.39Q295.15-50.55 293.18-52.07L293.18-52.07L293.18-52.07Q291.21-53.59 287.91-53.59L287.91-53.59L287.91-53.59Q286.00-53.59 283.65-53.02L283.65-53.02L283.65-53.02Q281.31-52.45 279.27-50.23L279.27-50.23L279.27-50.23Q277.24-48.01 275.91-43.69L275.91-43.69L275.91-43.69Q274.57-39.37 274.57-32.00L274.57-32.00L274.57-32.00Q274.57-24.51 275.91-20.13L275.91-20.13L275.91-20.13Q277.24-15.75 279.34-13.34L279.34-13.34L279.34-13.34Q281.43-10.92 283.84-10.22L283.84-10.22L283.84-10.22Q286.26-9.53 288.54-9.53L288.54-9.53L288.54-9.53Q290.32-9.53 292.23-9.84L292.23-9.84L292.23-9.84Q294.13-10.16 295.91-10.60L295.91-10.60L295.91-10.60Q297.69-11.05 299.02-11.43L299.02-11.43L299.02-11.43Q300.35-11.81 300.99-12.06L300.99-12.06L304.55-2.92L304.55-2.92Q304.16-2.79 302.83-2.16L302.83-2.16L302.83-2.16Q301.50-1.52 299.21-0.89L299.21-0.89L299.21-0.89Q296.93-0.25 293.75 0.32L293.75 0.32L293.75 0.32Q290.58 0.89 286.64 0.89L286.64 0.89L286.64 0.89Q279.27 0.89 274.07-1.33L274.07-1.33L274.07-1.33Q268.86-3.56 265.49-7.62L265.49-7.62L265.49-7.62Q262.13-11.68 260.54-17.40L260.54-17.40L260.54-17.40Q258.95-23.11 258.95-30.10L258.95-30.10L258.95-30.10Q258.95-38.48 261.18-44.96L261.18-44.96L261.18-44.96Q263.40-51.44 267.33-55.82L267.33-55.82L267.33-55.82Q271.27-60.20 276.61-62.48L276.61-62.48L276.61-62.48Q281.94-64.77 288.04-64.77L288.04-64.77L288.04-64.77Q294.00-64.77 298.13-62.48L298.13-62.48L298.13-62.48Q302.26-60.20 305.18-56.13L305.18-56.13ZM329.31-92.08L329.31-55.12L329.31-55.12Q332.99-59.94 338.14-62.10L338.14-62.10L338.14-62.10Q343.28-64.26 349.00-64.26L349.00-64.26L349.00-64.26Q358.77-64.26 363.16-58.36L363.16-58.36L363.16-58.36Q367.54-52.45 367.54-42.42L367.54-42.42L367.54 0L353.06 0L353.06-41.40L353.06-41.40Q353.06-46.74 351.15-49.85L351.15-49.85L351.15-49.85Q349.25-52.96 344.68-52.96L344.68-52.96L344.68-52.96Q342.01-52.96 339.28-51.56L339.28-51.56L339.28-51.56Q336.55-50.16 334.33-47.56L334.33-47.56L334.33-47.56Q332.10-44.96 330.71-41.40L330.71-41.40L330.71-41.40Q329.31-37.85 329.31-33.53L329.31-33.53L329.31 0L314.83 0L314.83-89.53L329.31-92.08ZM379.60-30.10L379.60-30.10Q379.60-38.61 381.95-45.09L381.95-45.09L381.95-45.09Q384.30-51.56 388.43-55.94L388.43-55.94L388.43-55.94Q392.56-60.33 398.14-62.55L398.14-62.55L398.14-62.55Q403.73-64.77 410.21-64.77L410.21-64.77L410.21-64.77Q415.92-64.77 419.93-63.37L419.93-63.37L419.93-63.37Q423.93-61.98 426.47-59.56L426.47-59.56L426.47-59.56Q429.01-57.15 430.21-53.85L430.21-53.85L430.21-53.85Q431.42-50.55 431.42-46.74L431.42-46.74L431.42-46.74Q431.42-42.16 428.88-38.04L428.88-38.04L428.88-38.04Q426.34-33.91 421.58-30.80L421.58-30.80L421.58-30.80Q416.81-27.69 410.08-25.84L410.08-25.84L410.08-25.84Q403.35-24.00 394.97-23.88L394.97-23.88L394.97-23.88Q395.35-20.96 396.18-18.35L396.18-18.35L396.18-18.35Q397.00-15.75 398.59-13.78L398.59-13.78L398.59-13.78Q400.18-11.81 402.72-10.67L402.72-10.67L402.72-10.67Q405.26-9.53 409.07-9.53L409.07-9.53L409.07-9.53Q411.86-9.53 415.04-10.16L415.04-10.16L415.04-10.16Q418.21-10.79 420.88-11.68L420.88-11.68L420.88-11.68Q424.05-12.70 427.10-13.97L427.10-13.97L430.91-4.95L430.91-4.95Q427.61-3.30 423.80-2.03L423.80-2.03L423.80-2.03Q420.50-0.89 416.18 0L416.18 0L416.18 0Q411.86 0.89 407.03 0.89L407.03 0.89L407.03 0.89Q399.67 0.89 394.46-1.33L394.46-1.33L394.46-1.33Q389.25-3.56 385.95-7.62L385.95-7.62L385.95-7.62Q382.65-11.68 381.13-17.40L381.13-17.40L381.13-17.40Q379.60-23.11 379.60-30.10L379.60-30.10ZM409.07-54.86L409.07-54.86Q404.88-54.86 402.15-52.90L402.15-52.90L402.15-52.90Q399.41-50.93 397.76-47.82L397.76-47.82L397.76-47.82Q396.11-44.70 395.41-40.83L395.41-40.83L395.41-40.83Q394.72-36.96 394.59-33.02L394.59-33.02L394.59-33.02Q400.68-33.27 404.94-34.61L404.94-34.61L404.94-34.61Q409.19-35.94 411.86-37.91L411.86-37.91L411.86-37.91Q414.53-39.88 415.73-42.16L415.73-42.16L415.73-42.16Q416.94-44.45 416.94-46.74L416.94-46.74L416.94-46.74Q416.94-50.42 414.78-52.64L414.78-52.64L414.78-52.64Q412.62-54.86 409.07-54.86L409.07-54.86ZM485.90-56.13L477.77-48.39L477.77-48.39Q475.87-50.55 473.90-52.07L473.90-52.07L473.90-52.07Q471.93-53.59 468.63-53.59L468.63-53.59L468.63-53.59Q466.72-53.59 464.38-53.02L464.38-53.02L464.38-53.02Q462.03-52.45 459.99-50.23L459.99-50.23L459.99-50.23Q457.96-48.01 456.63-43.69L456.63-43.69L456.63-43.69Q455.29-39.37 455.29-32.00L455.29-32.00L455.29-32.00Q455.29-24.51 456.63-20.13L456.63-20.13L456.63-20.13Q457.96-15.75 460.06-13.34L460.06-13.34L460.06-13.34Q462.15-10.92 464.57-10.22L464.57-10.22L464.57-10.22Q466.98-9.53 469.26-9.53L469.26-9.53L469.26-9.53Q471.04-9.53 472.95-9.84L472.95-9.84L472.95-9.84Q474.85-10.16 476.63-10.60L476.63-10.60L476.63-10.60Q478.41-11.05 479.74-11.43L479.74-11.43L479.74-11.43Q481.08-11.81 481.71-12.06L481.71-12.06L485.27-2.92L485.27-2.92Q484.89-2.79 483.55-2.16L483.55-2.16L483.55-2.16Q482.22-1.52 479.93-0.89L479.93-0.89L479.93-0.89Q477.65-0.25 474.47 0.32L474.47 0.32L474.47 0.32Q471.30 0.89 467.36 0.89L467.36 0.89L467.36 0.89Q459.99 0.89 454.79-1.33L454.79-1.33L454.79-1.33Q449.58-3.56 446.21-7.62L446.21-7.62L446.21-7.62Q442.85-11.68 441.26-17.40L441.26-17.40L441.26-17.40Q439.67-23.11 439.67-30.10L439.67-30.10L439.67-30.10Q439.67-38.48 441.90-44.96L441.90-44.96L441.90-44.96Q444.12-51.44 448.06-55.82L448.06-55.82L448.06-55.82Q451.99-60.20 457.33-62.48L457.33-62.48L457.33-62.48Q462.66-64.77 468.76-64.77L468.76-64.77L468.76-64.77Q474.73-64.77 478.85-62.48L478.85-62.48L478.85-62.48Q482.98-60.20 485.90-56.13L485.90-56.13ZM495.55-89.53L510.03-92.08L510.03-55.88L510.03-55.88Q511.05-57.15 512.64-58.61L512.64-58.61L512.64-58.61Q514.22-60.07 516.64-61.34L516.64-61.34L516.64-61.34Q519.05-62.61 522.22-63.50L522.22-63.50L522.22-63.50Q525.40-64.39 529.59-64.39L529.59-64.39L529.59-64.39Q533.53-64.39 536.96-63.25L536.96-63.25L536.96-63.25Q540.38-62.10 542.86-59.94L542.86-59.94L542.86-59.94Q545.34-57.79 546.80-54.67L546.80-54.67L546.80-54.67Q548.26-51.56 548.26-47.63L548.26-47.63L548.26-47.63Q548.26-41.91 545.91-38.23L545.91-38.23L545.91-38.23Q543.56-34.54 540.64-32.38L540.64-32.38L540.64-32.38Q537.34-29.84 533.02-28.32L533.02-28.32L550.80 0L534.42 0L516.13-31.62L516.00-32.89L516.00-32.89Q517.02-33.15 519.87-34.04L519.87-34.04L519.87-34.04Q522.73-34.92 525.78-36.58L525.78-36.58L525.78-36.58Q528.83-38.23 531.18-40.70L531.18-40.70L531.18-40.70Q533.53-43.18 533.53-46.61L533.53-46.61L533.53-46.61Q533.53-50.29 531.37-52.20L531.37-52.20L531.37-52.20Q529.21-54.10 525.65-54.10L525.65-54.10L525.65-54.10Q520.83-54.10 517.78-52.20L517.78-52.20L517.78-52.20Q514.73-50.29 513.02-47.88L513.02-47.88L513.02-47.88Q511.30-45.47 510.67-43.31L510.67-43.31L510.67-43.31Q510.03-41.15 510.03-40.77L510.03-40.77L510.03 0L495.55 0L495.55-89.53ZM607.31 0.51L607.31 0.51Q600.58 0.51 597.03-3.49L597.03-3.49L597.03-3.49Q593.47-7.49 593.47-13.84L593.47-13.84L593.47-63.25L607.95-63.25L607.95-15.11L607.95-15.11Q607.95-12.19 608.84-11.18L608.84-11.18L608.84-11.18Q609.73-10.16 611.50-10.16L611.50-10.16L611.50-10.16Q612.01-10.16 612.58-10.16L612.58-10.16L612.58-10.16Q613.16-10.16 613.66-10.29L613.66-10.29L613.66-10.29Q614.17-10.29 614.81-10.41L614.81-10.41L616.33-1.27L616.33-1.27Q615.44-0.76 614.04-0.38L614.04-0.38L614.04-0.38Q612.90 0 611.19 0.25L611.19 0.25L611.19 0.25Q609.47 0.51 607.31 0.51L607.31 0.51ZM600.96-91.44L600.96-91.44Q605.03-91.44 607.19-89.03L607.19-89.03L607.19-89.03Q609.35-86.61 609.35-82.80L609.35-82.80L609.35-82.80Q609.35-78.99 607.12-76.45L607.12-76.45L607.12-76.45Q604.90-73.91 600.58-73.91L600.58-73.91L600.58-73.91Q596.52-73.91 594.30-76.39L594.30-76.39L594.30-76.39Q592.07-78.87 592.07-82.42L592.07-82.42L592.07-82.42Q592.07-86.36 594.30-88.90L594.30-88.90L594.30-88.90Q596.52-91.44 600.96-91.44L600.96-91.44ZM645.16-64.77L645.16-64.77L645.16-64.77Q648.84-64.77 652.40-64.01L652.40-64.01L652.40-64.01Q655.95-63.25 658.75-62.23L658.75-62.23L658.75-62.23Q662.05-61.09 664.84-59.82L664.84-59.82L660.53-49.91L660.53-49.91Q657.99-51.05 655.45-51.94L655.45-51.94L655.45-51.94Q653.29-52.70 650.68-53.40L650.68-53.40L650.68-53.40Q648.08-54.10 645.54-54.10L645.54-54.10L645.54-54.10Q642.62-54.10 640.52-52.70L640.52-52.70L640.52-52.70Q638.43-51.31 638.43-48.51L638.43-48.51L638.43-48.51Q638.43-41.27 648.97-37.21L648.97-37.21L648.97-37.21Q652.91-35.69 656.08-33.97L656.08-33.97L656.08-33.97Q659.26-32.26 661.48-29.97L661.48-29.97L661.48-29.97Q663.70-27.69 664.84-24.70L664.84-24.70L664.84-24.70Q665.99-21.72 665.99-17.65L665.99-17.65L665.99-17.65Q665.99-14.10 664.53-10.67L664.53-10.67L664.53-10.67Q663.07-7.24 660.21-4.57L660.21-4.57L660.21-4.57Q657.35-1.91 653.22-0.32L653.22-0.32L653.22-0.32Q649.10 1.27 643.89 1.27L643.89 1.27L643.89 1.27Q639.70 1.27 635.63 0.32L635.63 0.32L635.63 0.32Q631.57-0.64 628.33-1.78L628.33-1.78L628.33-1.78Q625.09-2.92 623.19-3.94L623.19-3.94L621.28-4.83L625.98-15.49L627.63-14.61L627.63-14.61Q629.28-13.59 631.82-12.45L631.82-12.45L631.82-12.45Q634.36-11.30 637.29-10.35L637.29-10.35L637.29-10.35Q640.21-9.40 642.62-9.40L642.62-9.40L642.62-9.40Q647.06-9.40 649.22-11.18L649.22-11.18L649.22-11.18Q651.38-12.95 651.38-15.88L651.38-15.88L651.38-15.88Q651.38-19.18 649.03-21.91L649.03-21.91L649.03-21.91Q646.68-24.64 641.98-26.42L641.98-26.42L641.98-26.42Q632.21-30.10 627.95-34.80L627.95-34.80L627.95-34.80Q623.70-39.50 623.70-46.99L623.70-46.99L623.70-46.99Q623.70-50.55 625.35-53.78L625.35-53.78L625.35-53.78Q627.00-57.02 629.86-59.50L629.86-59.50L629.86-59.50Q632.71-61.98 636.65-63.37L636.65-63.37L636.65-63.37Q640.59-64.77 645.16-64.77ZM748.79-32.26L748.79-63.25L763.27-63.25L763.27-30.61L763.27-30.61Q763.27-22.99 764.22-17.84L764.22-17.84L764.22-17.84Q765.17-12.70 766.32-9.53L766.32-9.53L766.32-9.53Q767.71-5.71 769.37-3.56L769.37-3.56L758.06 1.02L758.06 1.02Q756.54-0.38 755.27-2.54L755.27-2.54L755.27-2.54Q754.25-4.32 753.17-6.92L753.17-6.92L753.17-6.92Q752.09-9.53 751.71-13.08L751.71-13.08L751.71-13.08Q748.28-5.59 742.06-2.41L742.06-2.41L742.06-2.41Q735.84 0.76 729.11 0.76L729.11 0.76L729.11 0.76Q719.07 0.76 714.82-5.08L714.82-5.08L714.82-5.08Q710.56-10.92 710.56-21.08L710.56-21.08L710.56-63.25L725.04-63.25L725.04-21.34L725.04-21.34Q725.04-16.00 726.95-12.95L726.95-12.95L726.95-12.95Q728.85-9.91 733.42-9.91L733.42-9.91L733.42-9.91Q736.22-9.91 738.95-11.49L738.95-11.49L738.95-11.49Q741.68-13.08 743.90-16.00L743.90-16.00L743.90-16.00Q746.12-18.92 747.46-23.05L747.46-23.05L747.46-23.05Q748.79-27.18 748.79-32.26L748.79-32.26ZM834.64 0L820.29 0L820.29-41.02L820.29-41.02Q820.29-46.36 818.39-49.59L818.39-49.59L818.39-49.59Q816.48-52.83 811.91-52.83L811.91-52.83L811.91-52.83Q808.99-52.83 806.26-51.37L806.26-51.37L806.26-51.37Q803.53-49.91 801.37-47.12L801.37-47.12L801.37-47.12Q799.21-44.32 797.88-40.32L797.88-40.32L797.88-40.32Q796.54-36.32 796.54-31.37L796.54-31.37L796.54 0L782.07 0L782.07-32.00L782.07-32.00Q782.07-39.62 781.05-44.77L781.05-44.77L781.05-44.77Q780.03-49.91 778.89-53.09L778.89-53.09L778.89-53.09Q777.49-56.77 775.84-59.05L775.84-59.05L787.27-63.63L787.27-63.63Q788.54-62.23 789.81-60.20L789.81-60.20L789.81-60.20Q790.83-58.42 791.84-55.82L791.84-55.82L791.84-55.82Q792.86-53.21 793.50-49.91L793.50-49.91L793.50-49.91Q796.80-57.53 803.02-60.90L803.02-60.90L803.02-60.90Q809.24-64.26 816.10-64.26L816.10-64.26L816.10-64.26Q825.88-64.26 830.26-58.36L830.26-58.36L830.26-58.36Q834.64-52.45 834.64-42.42L834.64-42.42L834.64 0ZM907.80-3.56L896.49 1.02L896.49 1.02Q896.24 0.89 895.35-0.19L895.35-0.19L895.35-0.19Q894.46-1.27 893.38-3.17L893.38-3.17L893.38-3.17Q892.30-5.08 891.29-7.94L891.29-7.94L891.29-7.94Q890.27-10.79 890.02-14.61L890.02-14.61L890.02-14.61Q887.86-6.99 883.09-3.11L883.09-3.11L883.09-3.11Q878.33 0.76 870.20 0.76L870.20 0.76L870.20 0.76Q864.23 0.76 859.85-1.46L859.85-1.46L859.85-1.46Q855.47-3.68 852.55-7.81L852.55-7.81L852.55-7.81Q849.63-11.94 848.23-17.78L848.23-17.78L848.23-17.78Q846.84-23.62 846.84-30.73L846.84-30.73L846.84-30.73Q846.84-37.97 849.06-44.13L849.06-44.13L849.06-44.13Q851.28-50.29 855.28-54.74L855.28-54.74L855.28-54.74Q859.28-59.18 864.87-61.72L864.87-61.72L864.87-61.72Q870.46-64.26 877.19-64.26L877.19-64.26L877.19-64.26Q879.47-64.26 882.08-64.01L882.08-64.01L882.08-64.01Q884.68-63.75 887.22-63.37L887.22-63.37L887.22-92.08L901.70-89.53L901.70-30.61L901.70-30.61Q901.70-22.99 902.59-17.97L902.59-17.97L902.59-17.97Q903.48-12.95 904.62-9.84L904.62-9.84L904.62-9.84Q905.76-6.73 906.72-5.33L906.72-5.33L906.72-5.33Q907.67-3.94 907.80-3.56L907.80-3.56ZM872.62-9.53L872.62-9.53Q875.79-9.53 878.46-11.68L878.46-11.68L878.46-11.68Q881.13-13.84 883.09-17.34L883.09-17.34L883.09-17.34Q885.06-20.83 886.14-25.27L886.14-25.27L886.14-25.27Q887.22-29.72 887.22-34.42L887.22-34.42L887.22-52.70L887.22-52.70Q885.95-53.09 883.41-53.59L883.41-53.59L883.41-53.59Q880.87-54.10 878.84-54.10L878.84-54.10L878.84-54.10Q874.01-54.10 870.90-52.45L870.90-52.45L870.90-52.45Q867.79-50.80 865.89-47.88L865.89-47.88L865.89-47.88Q863.98-44.96 863.22-40.89L863.22-40.89L863.22-40.89Q862.46-36.83 862.46-32.00L862.46-32.00L862.46-32.00Q862.46-27.56 862.71-23.50L862.71-23.50L862.71-23.50Q862.96-19.43 864.04-16.32L864.04-16.32L864.04-16.32Q865.12-13.21 867.16-11.37L867.16-11.37L867.16-11.37Q869.19-9.53 872.62-9.53L872.62-9.53ZM914.91-30.10L914.91-30.10Q914.91-38.61 917.26-45.09L917.26-45.09L917.26-45.09Q919.61-51.56 923.73-55.94L923.73-55.94L923.73-55.94Q927.86-60.33 933.45-62.55L933.45-62.55L933.45-62.55Q939.04-64.77 945.51-64.77L945.51-64.77L945.51-64.77Q951.23-64.77 955.23-63.37L955.23-63.37L955.23-63.37Q959.23-61.98 961.77-59.56L961.77-59.56L961.77-59.56Q964.31-57.15 965.52-53.85L965.52-53.85L965.52-53.85Q966.72-50.55 966.72-46.74L966.72-46.74L966.72-46.74Q966.72-42.16 964.18-38.04L964.18-38.04L964.18-38.04Q961.64-33.91 956.88-30.80L956.88-30.80L956.88-30.80Q952.12-27.69 945.39-25.84L945.39-25.84L945.39-25.84Q938.66-24.00 930.27-23.88L930.27-23.88L930.27-23.88Q930.66-20.96 931.48-18.35L931.48-18.35L931.48-18.35Q932.31-15.75 933.89-13.78L933.89-13.78L933.89-13.78Q935.48-11.81 938.02-10.67L938.02-10.67L938.02-10.67Q940.56-9.53 944.37-9.53L944.37-9.53L944.37-9.53Q947.17-9.53 950.34-10.16L950.34-10.16L950.34-10.16Q953.52-10.79 956.18-11.68L956.18-11.68L956.18-11.68Q959.36-12.70 962.41-13.97L962.41-13.97L966.22-4.95L966.22-4.95Q962.91-3.30 959.10-2.03L959.10-2.03L959.10-2.03Q955.80-0.89 951.48 0L951.48 0L951.48 0Q947.17 0.89 942.34 0.89L942.34 0.89L942.34 0.89Q934.97 0.89 929.77-1.33L929.77-1.33L929.77-1.33Q924.56-3.56 921.26-7.62L921.26-7.62L921.26-7.62Q917.96-11.68 916.43-17.40L916.43-17.40L916.43-17.40Q914.91-23.11 914.91-30.10L914.91-30.10ZM944.37-54.86L944.37-54.86Q940.18-54.86 937.45-52.90L937.45-52.90L937.45-52.90Q934.72-50.93 933.07-47.82L933.07-47.82L933.07-47.82Q931.42-44.70 930.72-40.83L930.72-40.83L930.72-40.83Q930.02-36.96 929.89-33.02L929.89-33.02L929.89-33.02Q935.99-33.27 940.24-34.61L940.24-34.61L940.24-34.61Q944.50-35.94 947.17-37.91L947.17-37.91L947.17-37.91Q949.83-39.88 951.04-42.16L951.04-42.16L951.04-42.16Q952.25-44.45 952.25-46.74L952.25-46.74L952.25-46.74Q952.25-50.42 950.09-52.64L950.09-52.64L950.09-52.64Q947.93-54.86 944.37-54.86L944.37-54.86ZM1007.11-50.04L1007.11-50.04Q1004.82-50.04 1002.54-48.90L1002.54-48.90L1002.54-48.90Q1000.25-47.75 998.47-45.78L998.47-45.78L998.47-45.78Q996.70-43.81 995.55-41.02L995.55-41.02L995.55-41.02Q994.41-38.23 994.41-34.80L994.41-34.80L994.41 0L979.93 0L979.93-32.00L979.93-32.00Q979.93-39.62 978.92-44.77L978.92-44.77L978.92-44.77Q977.90-49.91 976.76-53.09L976.76-53.09L976.76-53.09Q975.36-56.77 973.71-59.05L973.71-59.05L985.14-63.63L985.14-63.63Q986.28-62.23 987.55-60.20L987.55-60.20L987.55-60.20Q988.57-58.42 989.58-56.01L989.58-56.01L989.58-56.01Q990.60-53.59 991.23-50.29L991.23-50.29L991.23-50.29Q993.77-57.66 998.60-60.90L998.60-60.90L998.60-60.90Q1003.43-64.14 1009.52-64.14L1009.52-64.14L1009.52-64.14Q1012.44-64.14 1014.98-63.44L1014.98-63.44L1014.98-63.44Q1017.52-62.74 1017.40-62.74L1017.40-62.74L1013.33-48.64L1013.33-48.64Q1013.46-48.64 1011.87-49.34L1011.87-49.34L1011.87-49.34Q1010.28-50.04 1007.11-50.04L1007.11-50.04ZM1115.19-3.56L1103.88 1.02L1103.88 1.02Q1103.63 0.89 1102.74-0.19L1102.74-0.19L1102.74-0.19Q1101.85-1.27 1100.77-3.17L1100.77-3.17L1100.77-3.17Q1099.69-5.08 1098.68-7.94L1098.68-7.94L1098.68-7.94Q1097.66-10.79 1097.41-14.61L1097.41-14.61L1097.41-14.61Q1095.25-6.99 1090.49-3.11L1090.49-3.11L1090.49-3.11Q1085.72 0.76 1077.59 0.76L1077.59 0.76L1077.59 0.76Q1071.63 0.76 1067.24-1.46L1067.24-1.46L1067.24-1.46Q1062.86-3.68 1059.94-7.81L1059.94-7.81L1059.94-7.81Q1057.02-11.94 1055.62-17.78L1055.62-17.78L1055.62-17.78Q1054.23-23.62 1054.23-30.73L1054.23-30.73L1054.23-30.73Q1054.23-37.97 1056.45-44.13L1056.45-44.13L1056.45-44.13Q1058.67-50.29 1062.67-54.74L1062.67-54.74L1062.67-54.74Q1066.67-59.18 1072.26-61.72L1072.26-61.72L1072.26-61.72Q1077.85-64.26 1084.58-64.26L1084.58-64.26L1084.58-64.26Q1086.87-64.26 1089.47-64.01L1089.47-64.01L1089.47-64.01Q1092.07-63.75 1094.61-63.37L1094.61-63.37L1094.61-92.08L1109.09-89.53L1109.09-30.61L1109.09-30.61Q1109.09-22.99 1109.98-17.97L1109.98-17.97L1109.98-17.97Q1110.87-12.95 1112.01-9.84L1112.01-9.84L1112.01-9.84Q1113.15-6.73 1114.11-5.33L1114.11-5.33L1114.11-5.33Q1115.06-3.94 1115.19-3.56L1115.19-3.56ZM1080.01-9.53L1080.01-9.53Q1083.18-9.53 1085.85-11.68L1085.85-11.68L1085.85-11.68Q1088.52-13.84 1090.49-17.34L1090.49-17.34L1090.49-17.34Q1092.45-20.83 1093.53-25.27L1093.53-25.27L1093.53-25.27Q1094.61-29.72 1094.61-34.42L1094.61-34.42L1094.61-52.70L1094.61-52.70Q1093.34-53.09 1090.80-53.59L1090.80-53.59L1090.80-53.59Q1088.26-54.10 1086.23-54.10L1086.23-54.10L1086.23-54.10Q1081.40-54.10 1078.29-52.45L1078.29-52.45L1078.29-52.45Q1075.18-50.80 1073.28-47.88L1073.28-47.88L1073.28-47.88Q1071.37-44.96 1070.61-40.89L1070.61-40.89L1070.61-40.89Q1069.85-36.83 1069.85-32.00L1069.85-32.00L1069.85-32.00Q1069.85-27.56 1070.10-23.50L1070.10-23.50L1070.10-23.50Q1070.36-19.43 1071.44-16.32L1071.44-16.32L1071.44-16.32Q1072.51-13.21 1074.55-11.37L1074.55-11.37L1074.55-11.37Q1076.58-9.53 1080.01-9.53L1080.01-9.53ZM1122.30-30.10L1122.30-30.10Q1122.30-38.61 1124.65-45.09L1124.65-45.09L1124.65-45.09Q1127.00-51.56 1131.13-55.94L1131.13-55.94L1131.13-55.94Q1135.25-60.33 1140.84-62.55L1140.84-62.55L1140.84-62.55Q1146.43-64.77 1152.91-64.77L1152.91-64.77L1152.91-64.77Q1158.62-64.77 1162.62-63.37L1162.62-63.37L1162.62-63.37Q1166.62-61.98 1169.16-59.56L1169.16-59.56L1169.16-59.56Q1171.70-57.15 1172.91-53.85L1172.91-53.85L1172.91-53.85Q1174.11-50.55 1174.11-46.74L1174.11-46.74L1174.11-46.74Q1174.11-42.16 1171.57-38.04L1171.57-38.04L1171.57-38.04Q1169.03-33.91 1164.27-30.80L1164.27-30.80L1164.27-30.80Q1159.51-27.69 1152.78-25.84L1152.78-25.84L1152.78-25.84Q1146.05-24.00 1137.67-23.88L1137.67-23.88L1137.67-23.88Q1138.05-20.96 1138.87-18.35L1138.87-18.35L1138.87-18.35Q1139.70-15.75 1141.29-13.78L1141.29-13.78L1141.29-13.78Q1142.87-11.81 1145.41-10.67L1145.41-10.67L1145.41-10.67Q1147.95-9.53 1151.76-9.53L1151.76-9.53L1151.76-9.53Q1154.56-9.53 1157.73-10.16L1157.73-10.16L1157.73-10.16Q1160.91-10.79 1163.57-11.68L1163.57-11.68L1163.57-11.68Q1166.75-12.70 1169.80-13.97L1169.80-13.97L1173.61-4.95L1173.61-4.95Q1170.30-3.30 1166.49-2.03L1166.49-2.03L1166.49-2.03Q1163.19-0.89 1158.87 0L1158.87 0L1158.87 0Q1154.56 0.89 1149.73 0.89L1149.73 0.89L1149.73 0.89Q1142.36 0.89 1137.16-1.33L1137.16-1.33L1137.16-1.33Q1131.95-3.56 1128.65-7.62L1128.65-7.62L1128.65-7.62Q1125.35-11.68 1123.82-17.40L1123.82-17.40L1123.82-17.40Q1122.30-23.11 1122.30-30.10L1122.30-30.10ZM1151.76-54.86L1151.76-54.86Q1147.57-54.86 1144.84-52.90L1144.84-52.90L1144.84-52.90Q1142.11-50.93 1140.46-47.82L1140.46-47.82L1140.46-47.82Q1138.81-44.70 1138.11-40.83L1138.11-40.83L1138.11-40.83Q1137.41-36.96 1137.28-33.02L1137.28-33.02L1137.28-33.02Q1143.38-33.27 1147.64-34.61L1147.64-34.61L1147.64-34.61Q1151.89-35.94 1154.56-37.91L1154.56-37.91L1154.56-37.91Q1157.22-39.88 1158.43-42.16L1158.43-42.16L1158.43-42.16Q1159.64-44.45 1159.64-46.74L1159.64-46.74L1159.64-46.74Q1159.64-50.42 1157.48-52.64L1157.48-52.64L1157.48-52.64Q1155.32-54.86 1151.76-54.86L1151.76-54.86ZM1221.49-63.25L1236.22-63.25L1236.47-62.23L1236.47-62.23Q1236.60-61.09 1236.85-59.25L1236.85-59.25L1236.85-59.25Q1237.11-57.40 1237.30-55.05L1237.30-55.05L1237.30-55.05Q1237.49-52.70 1237.49-50.29L1237.49-50.29L1237.49-50.29Q1237.49-36.20 1235.39-26.48L1235.39-26.48L1235.39-26.48Q1233.30-16.76 1229.04-10.73L1229.04-10.73L1229.04-10.73Q1224.79-4.70 1218.25-2.03L1218.25-2.03L1218.25-2.03Q1211.71 0.64 1202.82 0.64L1202.82 0.64L1202.82 0.64Q1192.78 0.64 1188.53-5.14L1188.53-5.14L1188.53-5.14Q1184.27-10.92 1184.27-21.08L1184.27-21.08L1184.27-63.25L1198.75-63.25L1198.75-21.46L1198.75-21.46Q1198.75-16.13 1200.66-12.83L1200.66-12.83L1200.66-12.83Q1202.56-9.53 1207.13-9.53L1207.13-9.53L1207.13-9.53Q1211.71-9.53 1214.75-12.95L1214.75-12.95L1214.75-12.95Q1217.80-16.38 1219.58-21.91L1219.58-21.91L1219.58-21.91Q1221.36-27.43 1222.12-34.48L1222.12-34.48L1222.12-34.48Q1222.88-41.53 1222.88-48.77L1222.88-48.77L1222.88-48.77Q1222.88-51.44 1222.69-54.04L1222.69-54.04L1222.69-54.04Q1222.50-56.64 1222.18-58.67L1222.18-58.67L1222.18-58.67Q1221.87-60.71 1221.74-61.98L1221.74-61.98L1221.49-63.25ZM1247.65-30.10L1247.65-30.10Q1247.65-38.61 1250.00-45.09L1250.00-45.09L1250.00-45.09Q1252.35-51.56 1256.47-55.94L1256.47-55.94L1256.47-55.94Q1260.60-60.33 1266.19-62.55L1266.19-62.55L1266.19-62.55Q1271.78-64.77 1278.25-64.77L1278.25-64.77L1278.25-64.77Q1283.97-64.77 1287.97-63.37L1287.97-63.37L1287.97-63.37Q1291.97-61.98 1294.51-59.56L1294.51-59.56L1294.51-59.56Q1297.05-57.15 1298.26-53.85L1298.26-53.85L1298.26-53.85Q1299.46-50.55 1299.46-46.74L1299.46-46.74L1299.46-46.74Q1299.46-42.16 1296.92-38.04L1296.92-38.04L1296.92-38.04Q1294.38-33.91 1289.62-30.80L1289.62-30.80L1289.62-30.80Q1284.86-27.69 1278.13-25.84L1278.13-25.84L1278.13-25.84Q1271.40-24.00 1263.01-23.88L1263.01-23.88L1263.01-23.88Q1263.40-20.96 1264.22-18.35L1264.22-18.35L1264.22-18.35Q1265.05-15.75 1266.63-13.78L1266.63-13.78L1266.63-13.78Q1268.22-11.81 1270.76-10.67L1270.76-10.67L1270.76-10.67Q1273.30-9.53 1277.11-9.53L1277.11-9.53L1277.11-9.53Q1279.91-9.53 1283.08-10.16L1283.08-10.16L1283.08-10.16Q1286.26-10.79 1288.92-11.68L1288.92-11.68L1288.92-11.68Q1292.10-12.70 1295.15-13.97L1295.15-13.97L1298.96-4.95L1298.96-4.95Q1295.65-3.30 1291.84-2.03L1291.84-2.03L1291.84-2.03Q1288.54-0.89 1284.22 0L1284.22 0L1284.22 0Q1279.91 0.89 1275.08 0.89L1275.08 0.89L1275.08 0.89Q1267.71 0.89 1262.51-1.33L1262.51-1.33L1262.51-1.33Q1257.30-3.56 1254.00-7.62L1254.00-7.62L1254.00-7.62Q1250.70-11.68 1249.17-17.40L1249.17-17.40L1249.17-17.40Q1247.65-23.11 1247.65-30.10L1247.65-30.10ZM1277.11-54.86L1277.11-54.86Q1272.92-54.86 1270.19-52.90L1270.19-52.90L1270.19-52.90Q1267.46-50.93 1265.81-47.82L1265.81-47.82L1265.81-47.82Q1264.16-44.70 1263.46-40.83L1263.46-40.83L1263.46-40.83Q1262.76-36.96 1262.63-33.02L1262.63-33.02L1262.63-33.02Q1268.73-33.27 1272.98-34.61L1272.98-34.61L1272.98-34.61Q1277.24-35.94 1279.91-37.91L1279.91-37.91L1279.91-37.91Q1282.57-39.88 1283.78-42.16L1283.78-42.16L1283.78-42.16Q1284.99-44.45 1284.99-46.74L1284.99-46.74L1284.99-46.74Q1284.99-50.42 1282.83-52.64L1282.83-52.64L1282.83-52.64Q1280.67-54.86 1277.11-54.86L1277.11-54.86ZM1324.99 0.51L1324.99 0.51Q1317.75 0.51 1314.32-3.49L1314.32-3.49L1314.32-3.49Q1310.89-7.49 1310.89-13.72L1310.89-13.72L1310.89-89.53L1325.37-92.20L1325.37-15.11L1325.37-15.11Q1325.37-12.19 1326.51-11.05L1326.51-11.05L1326.51-11.05Q1327.66-9.91 1329.82-9.91L1329.82-9.91L1329.82-9.91Q1331.09-9.91 1332.29-10.03L1332.29-10.03L1332.29-10.03Q1333.50-10.16 1334.52-10.41L1334.52-10.41L1334.52-10.41Q1335.66-10.67 1336.55-10.92L1336.55-10.92L1338.33-1.78L1338.33-1.78Q1336.67-1.14 1334.64-0.64L1334.64-0.64L1334.64-0.64Q1332.86-0.13 1330.45 0.19L1330.45 0.19L1330.45 0.19Q1328.04 0.51 1324.99 0.51L1324.99 0.51ZM1371.73-64.77L1371.73-64.77Q1386.33-64.77 1392.94-56.13L1392.94-56.13L1392.94-56.13Q1399.54-47.50 1399.54-32.38L1399.54-32.38L1399.54-32.38Q1399.54-25.27 1397.76-19.11L1397.76-19.11L1397.76-19.11Q1395.98-12.95 1392.36-8.45L1392.36-8.45L1392.36-8.45Q1388.74-3.94 1383.28-1.33L1383.28-1.33L1383.28-1.33Q1377.82 1.27 1370.58 1.27L1370.58 1.27L1370.58 1.27Q1363.34 1.27 1358.07-0.95L1358.07-0.95L1358.07-0.95Q1352.80-3.17 1349.37-7.37L1349.37-7.37L1349.37-7.37Q1345.95-11.56 1344.36-17.53L1344.36-17.53L1344.36-17.53Q1342.77-23.50 1342.77-30.99L1342.77-30.99L1342.77-30.99Q1342.77-38.23 1344.55-44.39L1344.55-44.39L1344.55-44.39Q1346.33-50.55 1349.95-55.05L1349.95-55.05L1349.95-55.05Q1353.57-59.56 1359.03-62.17L1359.03-62.17L1359.03-62.17Q1364.49-64.77 1371.73-64.77L1371.73-64.77ZM1370.46-54.10L1370.46-54.10Q1366.77-54.10 1364.42-52.45L1364.42-52.45L1364.42-52.45Q1362.07-50.80 1360.74-47.82L1360.74-47.82L1360.74-47.82Q1359.41-44.83 1358.90-40.83L1358.90-40.83L1358.90-40.83Q1358.39-36.83 1358.39-32.26L1358.39-32.26L1358.39-32.26Q1358.39-27.56 1358.96-23.37L1358.96-23.37L1358.96-23.37Q1359.53-19.18 1361.06-16.07L1361.06-16.07L1361.06-16.07Q1362.58-12.95 1365.19-11.18L1365.19-11.18L1365.19-11.18Q1367.79-9.40 1371.85-9.40L1371.85-9.40L1371.85-9.40Q1375.54-9.40 1377.89-11.05L1377.89-11.05L1377.89-11.05Q1380.24-12.70 1381.57-15.68L1381.57-15.68L1381.57-15.68Q1382.90-18.67 1383.41-22.61L1383.41-22.61L1383.41-22.61Q1383.92-26.54 1383.92-31.12L1383.92-31.12L1383.92-31.12Q1383.92-35.81 1383.35-40.01L1383.35-40.01L1383.35-40.01Q1382.78-44.20 1381.25-47.37L1381.25-47.37L1381.25-47.37Q1379.73-50.55 1377.12-52.32L1377.12-52.32L1377.12-52.32Q1374.52-54.10 1370.46-54.10L1370.46-54.10ZM1427.86 25.53L1413.38 28.07L1413.38-32.00L1413.38-32.00Q1413.38-39.62 1412.37-44.77L1412.37-44.77L1412.37-44.77Q1411.35-49.91 1410.21-53.09L1410.21-53.09L1410.21-53.09Q1408.81-56.77 1407.16-59.05L1407.16-59.05L1418.59-63.63L1418.59-63.63Q1420.11-62.10 1421.38-59.82L1421.38-59.82L1421.38-59.82Q1422.40-57.91 1423.42-55.18L1423.42-55.18L1423.42-55.18Q1424.43-52.45 1424.94-48.77L1424.94-48.77L1424.94-48.77Q1427.10-56.39 1431.80-60.33L1431.80-60.33L1431.80-60.33Q1436.50-64.26 1444.88-64.26L1444.88-64.26L1444.88-64.26Q1450.85-64.26 1455.23-62.04L1455.23-62.04L1455.23-62.04Q1459.61-59.82 1462.47-55.69L1462.47-55.69L1462.47-55.69Q1465.33-51.56 1466.72-45.72L1466.72-45.72L1466.72-45.72Q1468.12-39.88 1468.12-32.77L1468.12-32.77L1468.12-32.77Q1468.12-25.53 1465.96-19.37L1465.96-19.37L1465.96-19.37Q1463.80-13.21 1459.80-8.76L1459.80-8.76L1459.80-8.76Q1455.80-4.32 1450.21-1.78L1450.21-1.78L1450.21-1.78Q1444.63 0.76 1437.77 0.76L1437.77 0.76L1437.77 0.76Q1435.35 0.76 1432.88 0.51L1432.88 0.51L1432.88 0.51Q1430.40 0.25 1427.86 0L1427.86 0L1427.86 25.53ZM1442.47-54.10L1442.47-54.10Q1439.29-54.10 1436.62-51.94L1436.62-51.94L1436.62-51.94Q1433.96-49.78 1431.99-46.23L1431.99-46.23L1431.99-46.23Q1430.02-42.67 1428.94-38.23L1428.94-38.23L1428.94-38.23Q1427.86-33.78 1427.86-29.08L1427.86-29.08L1427.86-10.79L1427.86-10.79Q1429.13-10.41 1431.67-9.91L1431.67-9.91L1431.67-9.91Q1434.21-9.40 1436.12-9.40L1436.12-9.40L1436.12-9.40Q1440.94-9.40 1444.12-11.05L1444.12-11.05L1444.12-11.05Q1447.29-12.70 1449.20-15.62L1449.20-15.62L1449.20-15.62Q1451.10-18.54 1451.86-22.61L1451.86-22.61L1451.86-22.61Q1452.63-26.67 1452.63-31.50L1452.63-31.50L1452.63-31.50Q1452.63-35.94 1452.37-40.01L1452.37-40.01L1452.37-40.01Q1452.12-44.07 1451.04-47.24L1451.04-47.24L1451.04-47.24Q1449.96-50.42 1447.93-52.26L1447.93-52.26L1447.93-52.26Q1445.89-54.10 1442.47-54.10L1442.47-54.10ZM1567.82 0L1553.46 0L1553.46-41.40L1553.46-41.40Q1553.46-46.74 1551.81-49.85L1551.81-49.85L1551.81-49.85Q1550.16-52.96 1546.10-52.96L1546.10-52.96L1546.10-52.96Q1543.68-52.96 1541.21-51.63L1541.21-51.63L1541.21-51.63Q1538.73-50.29 1536.70-47.75L1536.70-47.75L1536.70-47.75Q1534.67-45.21 1533.40-41.66L1533.40-41.66L1533.40-41.66Q1532.13-38.10 1532.13-33.78L1532.13-33.78L1532.13 0L1517.78 0L1517.78-41.40L1517.78-41.40Q1517.78-46.74 1516.13-49.85L1516.13-49.85L1516.13-49.85Q1514.47-52.96 1510.41-52.96L1510.41-52.96L1510.41-52.96Q1507.87-52.96 1505.39-51.50L1505.39-51.50L1505.39-51.50Q1502.92-50.04 1500.95-47.24L1500.95-47.24L1500.95-47.24Q1498.98-44.45 1497.77-40.45L1497.77-40.45L1497.77-40.45Q1496.57-36.45 1496.57-31.50L1496.57-31.50L1496.57 0L1482.09 0L1482.09-32.00L1482.09-32.00Q1482.09-39.62 1481.07-44.77L1481.07-44.77L1481.07-44.77Q1480.06-49.91 1478.91-53.09L1478.91-53.09L1478.91-53.09Q1477.52-56.77 1475.87-59.05L1475.87-59.05L1487.30-63.63L1487.30-63.63Q1488.57-62.23 1489.84-60.20L1489.84-60.20L1489.84-60.20Q1490.85-58.42 1491.87-55.82L1491.87-55.82L1491.87-55.82Q1492.88-53.21 1493.52-49.91L1493.52-49.91L1493.52-49.91Q1496.69-57.53 1502.47-60.90L1502.47-60.90L1502.47-60.90Q1508.25-64.26 1514.73-64.26L1514.73-64.26L1514.73-64.26Q1521.21-64.26 1524.83-60.96L1524.83-60.96L1524.83-60.96Q1528.44-57.66 1530.22-52.45L1530.22-52.45L1530.22-52.45Q1533.65-58.80 1539.05-61.53L1539.05-61.53L1539.05-61.53Q1544.45-64.26 1550.42-64.26L1550.42-64.26L1550.42-64.26Q1555.37-64.26 1558.73-62.67L1558.73-62.67L1558.73-62.67Q1562.10-61.09 1564.07-58.23L1564.07-58.23L1564.07-58.23Q1566.04-55.37 1566.93-51.37L1566.93-51.37L1566.93-51.37Q1567.82-47.37 1567.82-42.42L1567.82-42.42L1567.82 0ZM1579.88-30.10L1579.88-30.10Q1579.88-38.61 1582.23-45.09L1582.23-45.09L1582.23-45.09Q1584.58-51.56 1588.71-55.94L1588.71-55.94L1588.71-55.94Q1592.83-60.33 1598.42-62.55L1598.42-62.55L1598.42-62.55Q1604.01-64.77 1610.49-64.77L1610.49-64.77L1610.49-64.77Q1616.20-64.77 1620.20-63.37L1620.20-63.37L1620.20-63.37Q1624.20-61.98 1626.74-59.56L1626.74-59.56L1626.74-59.56Q1629.28-57.15 1630.49-53.85L1630.49-53.85L1630.49-53.85Q1631.70-50.55 1631.70-46.74L1631.70-46.74L1631.70-46.74Q1631.70-42.16 1629.16-38.04L1629.16-38.04L1629.16-38.04Q1626.62-33.91 1621.85-30.80L1621.85-30.80L1621.85-30.80Q1617.09-27.69 1610.36-25.84L1610.36-25.84L1610.36-25.84Q1603.63-24.00 1595.25-23.88L1595.25-23.88L1595.25-23.88Q1595.63-20.96 1596.45-18.35L1596.45-18.35L1596.45-18.35Q1597.28-15.75 1598.87-13.78L1598.87-13.78L1598.87-13.78Q1600.45-11.81 1602.99-10.67L1602.99-10.67L1602.99-10.67Q1605.53-9.53 1609.34-9.53L1609.34-9.53L1609.34-9.53Q1612.14-9.53 1615.31-10.16L1615.31-10.16L1615.31-10.16Q1618.49-10.79 1621.15-11.68L1621.15-11.68L1621.15-11.68Q1624.33-12.70 1627.38-13.97L1627.38-13.97L1631.19-4.95L1631.19-4.95Q1627.89-3.30 1624.08-2.03L1624.08-2.03L1624.08-2.03Q1620.77-0.89 1616.46 0L1616.46 0L1616.46 0Q1612.14 0.89 1607.31 0.89L1607.31 0.89L1607.31 0.89Q1599.95 0.89 1594.74-1.33L1594.74-1.33L1594.74-1.33Q1589.53-3.56 1586.23-7.62L1586.23-7.62L1586.23-7.62Q1582.93-11.68 1581.40-17.40L1581.40-17.40L1581.40-17.40Q1579.88-23.11 1579.88-30.10L1579.88-30.10ZM1609.34-54.86L1609.34-54.86Q1605.15-54.86 1602.42-52.90L1602.42-52.90L1602.42-52.90Q1599.69-50.93 1598.04-47.82L1598.04-47.82L1598.04-47.82Q1596.39-44.70 1595.69-40.83L1595.69-40.83L1595.69-40.83Q1594.99-36.96 1594.87-33.02L1594.87-33.02L1594.87-33.02Q1600.96-33.27 1605.22-34.61L1605.22-34.61L1605.22-34.61Q1609.47-35.94 1612.14-37.91L1612.14-37.91L1612.14-37.91Q1614.80-39.88 1616.01-42.16L1616.01-42.16L1616.01-42.16Q1617.22-44.45 1617.22-46.74L1617.22-46.74L1617.22-46.74Q1617.22-50.42 1615.06-52.64L1615.06-52.64L1615.06-52.64Q1612.90-54.86 1609.34-54.86L1609.34-54.86ZM1697.48 0L1683.13 0L1683.13-41.02L1683.13-41.02Q1683.13-46.36 1681.23-49.59L1681.23-49.59L1681.23-49.59Q1679.32-52.83 1674.75-52.83L1674.75-52.83L1674.75-52.83Q1671.83-52.83 1669.10-51.37L1669.10-51.37L1669.10-51.37Q1666.37-49.91 1664.21-47.12L1664.21-47.12L1664.21-47.12Q1662.05-44.32 1660.72-40.32L1660.72-40.32L1660.72-40.32Q1659.38-36.32 1659.38-31.37L1659.38-31.37L1659.38 0L1644.90 0L1644.90-32.00L1644.90-32.00Q1644.90-39.62 1643.89-44.77L1643.89-44.77L1643.89-44.77Q1642.87-49.91 1641.73-53.09L1641.73-53.09L1641.73-53.09Q1640.33-56.77 1638.68-59.05L1638.68-59.05L1650.11-63.63L1650.11-63.63Q1651.38-62.23 1652.65-60.20L1652.65-60.20L1652.65-60.20Q1653.67-58.42 1654.68-55.82L1654.68-55.82L1654.68-55.82Q1655.70-53.21 1656.33-49.91L1656.33-49.91L1656.33-49.91Q1659.64-57.53 1665.86-60.90L1665.86-60.90L1665.86-60.90Q1672.08-64.26 1678.94-64.26L1678.94-64.26L1678.94-64.26Q1688.72-64.26 1693.10-58.36L1693.10-58.36L1693.10-58.36Q1697.48-52.45 1697.48-42.42L1697.48-42.42L1697.48 0ZM1706.50-52.96L1706.50-63.25L1717.93-63.25L1720.47-78.11L1732.41-80.77L1732.41-63.25L1748.03-63.25L1746.25-52.96L1732.41-52.96L1732.41-15.37L1732.41-15.37Q1732.41-12.06 1734.18-11.11L1734.18-11.11L1734.18-11.11Q1735.96-10.16 1738.12-10.16L1738.12-10.16L1738.12-10.16Q1739.90-10.16 1741.68-10.41L1741.68-10.41L1741.68-10.41Q1743.46-10.67 1744.85-11.05L1744.85-11.05L1744.85-11.05Q1746.50-11.43 1748.03-11.94L1748.03-11.94L1750.44-2.41L1749.30-2.03L1749.30-2.03Q1748.15-1.52 1745.93-0.95L1745.93-0.95L1745.93-0.95Q1743.71-0.38 1740.73 0.06L1740.73 0.06L1740.73 0.06Q1737.74 0.51 1734.18 0.51L1734.18 0.51L1734.18 0.51Q1730.63 0.51 1727.64-0.25L1727.64-0.25L1727.64-0.25Q1724.66-1.02 1722.50-2.73L1722.50-2.73L1722.50-2.73Q1720.34-4.45 1719.14-7.11L1719.14-7.11L1719.14-7.11Q1717.93-9.78 1717.93-13.72L1717.93-13.72L1717.93-52.96L1706.50-52.96Z" fill="#ccc"></path></g></g><style>text {
  font-size: 64px;
  font-family: Arial Black;
  dominant-baseline: central;
  text-anchor: middle;
}</style></svg>