<svg width="3770.33720703125px" height="349.6000244140625px" xmlns="http://www.w3.org/2000/svg" viewBox="-1635.168603515625 -99.80001220703124 3770.33720703125 349.6000244140625" style="background: rgba(0, 0, 0, 0);" preserveAspectRatio="xMidYMid"><defs><filter id="editing-hole" x="-100%" y="-100%" width="300%" height="300%"><feFlood flood-color="#000" result="black"></feFlood><feMorphology operator="dilate" radius="2" in="SourceGraphic" result="erode"></feMorphology><feGaussianBlur in="erode" stdDeviation="4" result="blur"></feGaussianBlur><feOffset in="blur" dx="2" dy="2" result="offset"></feOffset><feComposite operator="atop" in="offset" in2="black" result="merge"></feComposite><feComposite operator="in" in="merge" in2="SourceGraphic" result="inner-shadow"></feComposite></filter></defs><g filter="url(#editing-hole)"><g transform="translate(-1133.0002193450928, 169.69998931884766)"><path d="M100.60-122.80L88.40-108.20L88.40-108.20Q83.60-113.40 78.30-116.10L78.30-116.10L78.30-116.10Q73-118.80 66-118.80L66-118.80L66-118.80Q57.40-118.80 51.50-114.90L51.50-114.90L51.50-114.90Q45.60-111 42-104.10L42-104.10L42-104.10Q38.40-97.20 36.80-88L36.80-88L36.80-88Q35.20-78.80 35.20-68.20L35.20-68.20L35.20-68.20Q35.20-57.60 36.70-48.40L36.70-48.40L36.70-48.40Q38.20-39.20 41.90-32.20L41.90-32.20L41.90-32.20Q45.60-25.20 51.90-21.20L51.90-21.20L51.90-21.20Q58.20-17.20 67.80-17.20L67.80-17.20L67.80-17.20Q72.40-17.20 76.60-18L76.60-18L76.60-18Q80.80-18.80 84.30-19.70L84.30-19.70L84.30-19.70Q87.80-20.60 90.10-21.40L90.10-21.40L90.10-21.40Q92.40-22.20 93-22.40L93-22.40L98.60-5.60L96-4.60L96-4.60Q93.40-3.60 88.70-2.30L88.70-2.30L88.70-2.30Q84-1 77.50 0.10L77.50 0.10L77.50 0.10Q71 1.20 63.20 1.20L63.20 1.20L63.20 1.20Q36.40 1.20 22.90-15.90L22.90-15.90L22.90-15.90Q9.40-33 9.40-66L9.40-66L9.40-66Q9.40-81.80 13-94.90L13-94.90L13-94.90Q16.60-108 23.90-117.40L23.90-117.40L23.90-117.40Q31.20-126.80 42.30-132L42.30-132L42.30-132Q53.40-137.20 68.40-137.20L68.40-137.20L68.40-137.20Q80.40-137.20 88.10-132.80L88.10-132.80L88.10-132.80Q95.80-128.40 100.60-122.80L100.60-122.80ZM138.60 0.80L138.60 0.80Q128 0.80 122.40-5.50L122.40-5.50L122.40-5.50Q116.80-11.80 116.80-21.80L116.80-21.80L116.80-99.60L139.60-99.60L139.60-23.80L139.60-23.80Q139.60-19.20 141-17.60L141-17.60L141-17.60Q142.40-16 145.20-16L145.20-16L145.20-16Q146-16 146.90-16L146.90-16L146.90-16Q147.80-16 148.60-16.20L148.60-16.20L148.60-16.20Q149.40-16.20 150.40-16.40L150.40-16.40L152.80-2L152.80-2Q151.40-1.20 149.20-0.60L149.20-0.60L149.20-0.60Q147.40 0 144.70 0.40L144.70 0.40L144.70 0.40Q142 0.80 138.60 0.80L138.60 0.80ZM128.60-144L128.60-144Q135-144 138.40-140.20L138.40-140.20L138.40-140.20Q141.80-136.40 141.80-130.40L141.80-130.40L141.80-130.40Q141.80-124.40 138.30-120.40L138.30-120.40L138.30-120.40Q134.80-116.40 128-116.40L128-116.40L128-116.40Q121.60-116.40 118.10-120.30L118.10-120.30L118.10-120.30Q114.60-124.20 114.60-129.80L114.60-129.80L114.60-129.80Q114.60-136 118.10-140L118.10-140L118.10-140Q121.60-144 128.60-144L128.60-144ZM213.40-78.80L213.40-78.80Q209.80-78.80 206.20-77L206.20-77L206.20-77Q202.60-75.20 199.80-72.10L199.80-72.10L199.80-72.10Q197-69 195.20-64.60L195.20-64.60L195.20-64.60Q193.40-60.20 193.40-54.80L193.40-54.80L193.40 0L170.60 0L170.60-50.40L170.60-50.40Q170.60-62.40 169-70.50L169-70.50L169-70.50Q167.40-78.60 165.60-83.60L165.60-83.60L165.60-83.60Q163.40-89.40 160.80-93L160.80-93L178.80-100.20L178.80-100.20Q180.60-98 182.60-94.80L182.60-94.80L182.60-94.80Q184.20-92 185.80-88.20L185.80-88.20L185.80-88.20Q187.40-84.40 188.40-79.20L188.40-79.20L188.40-79.20Q192.40-90.80 200-95.90L200-95.90L200-95.90Q207.60-101 217.20-101L217.20-101L217.20-101Q221.80-101 225.80-99.90L225.80-99.90L225.80-99.90Q229.80-98.80 229.60-98.80L229.60-98.80L223.20-76.60L223.20-76.60Q223.40-76.60 220.90-77.70L220.90-77.70L220.90-77.70Q218.40-78.80 213.40-78.80L213.40-78.80ZM287.20-78.80L287.20-78.80Q283.60-78.80 280-77L280-77L280-77Q276.40-75.20 273.60-72.10L273.60-72.10L273.60-72.10Q270.80-69 269-64.60L269-64.60L269-64.60Q267.20-60.20 267.20-54.80L267.20-54.80L267.20 0L244.40 0L244.40-50.40L244.40-50.40Q244.40-62.40 242.80-70.50L242.80-70.50L242.80-70.50Q241.20-78.60 239.40-83.60L239.40-83.60L239.40-83.60Q237.20-89.40 234.60-93L234.60-93L252.60-100.20L252.60-100.20Q254.40-98 256.40-94.80L256.40-94.80L256.40-94.80Q258-92 259.60-88.20L259.60-88.20L259.60-88.20Q261.20-84.40 262.20-79.20L262.20-79.20L262.20-79.20Q266.20-90.80 273.80-95.90L273.80-95.90L273.80-95.90Q281.40-101 291-101L291-101L291-101Q295.60-101 299.60-99.90L299.60-99.90L299.60-99.90Q303.60-98.80 303.40-98.80L303.40-98.80L297-76.60L297-76.60Q297.20-76.60 294.70-77.70L294.70-77.70L294.70-77.70Q292.20-78.80 287.20-78.80L287.20-78.80ZM350.00-102L350.00-102Q373.00-102 383.40-88.40L383.40-88.40L383.40-88.40Q393.80-74.80 393.80-51L393.80-51L393.80-51Q393.80-39.80 391.00-30.10L391.00-30.10L391.00-30.10Q388.20-20.40 382.50-13.30L382.50-13.30L382.50-13.30Q376.80-6.20 368.20-2.10L368.20-2.10L368.20-2.10Q359.60 2 348.20 2L348.20 2L348.20 2Q336.80 2 328.50-1.50L328.50-1.50L328.50-1.50Q320.20-5 314.80-11.60L314.80-11.60L314.80-11.60Q309.40-18.20 306.90-27.60L306.90-27.60L306.90-27.60Q304.40-37 304.40-48.80L304.40-48.80L304.40-48.80Q304.40-60.20 307.20-69.90L307.20-69.90L307.20-69.90Q310.00-79.60 315.70-86.70L315.70-86.70L315.70-86.70Q321.40-93.80 330.00-97.90L330.00-97.90L330.00-97.90Q338.60-102 350.00-102L350.00-102ZM348.00-85.20L348.00-85.20Q342.20-85.20 338.50-82.60L338.50-82.60L338.50-82.60Q334.80-80 332.70-75.30L332.70-75.30L332.70-75.30Q330.60-70.60 329.80-64.30L329.80-64.30L329.80-64.30Q329.00-58 329.00-50.80L329.00-50.80L329.00-50.80Q329.00-43.40 329.90-36.80L329.90-36.80L329.90-36.80Q330.80-30.20 333.20-25.30L333.20-25.30L333.20-25.30Q335.60-20.40 339.70-17.60L339.70-17.60L339.70-17.60Q343.80-14.80 350.20-14.80L350.20-14.80L350.20-14.80Q356.00-14.80 359.70-17.40L359.70-17.40L359.70-17.40Q363.40-20 365.50-24.70L365.50-24.70L365.50-24.70Q367.60-29.40 368.40-35.60L368.40-35.60L368.40-35.60Q369.20-41.80 369.20-49L369.20-49L369.20-49Q369.20-56.40 368.30-63L368.30-63L368.30-63Q367.40-69.60 365.00-74.60L365.00-74.60L365.00-74.60Q362.60-79.60 358.50-82.40L358.50-82.40L358.50-82.40Q354.40-85.20 348.00-85.20L348.00-85.20ZM480.60-88.40L467.80-76.20L467.80-76.20Q464.80-79.60 461.70-82L461.70-82L461.70-82Q458.60-84.40 453.40-84.40L453.40-84.40L453.40-84.40Q450.40-84.40 446.70-83.50L446.70-83.50L446.70-83.50Q443.00-82.60 439.80-79.10L439.80-79.10L439.80-79.10Q436.60-75.60 434.50-68.80L434.50-68.80L434.50-68.80Q432.40-62 432.40-50.40L432.40-50.40L432.40-50.40Q432.40-38.60 434.50-31.70L434.50-31.70L434.50-31.70Q436.60-24.80 439.90-21L439.90-21L439.90-21Q443.20-17.20 447.00-16.10L447.00-16.10L447.00-16.10Q450.80-15 454.40-15L454.40-15L454.40-15Q457.20-15 460.20-15.50L460.20-15.50L460.20-15.50Q463.20-16 466.00-16.70L466.00-16.70L466.00-16.70Q468.80-17.40 470.90-18L470.90-18L470.90-18Q473.00-18.60 474.00-19L474.00-19L479.60-4.60L479.60-4.60Q479.00-4.40 476.90-3.40L476.90-3.40L476.90-3.40Q474.80-2.40 471.20-1.40L471.20-1.40L471.20-1.40Q467.60-0.40 462.60 0.50L462.60 0.50L462.60 0.50Q457.60 1.40 451.40 1.40L451.40 1.40L451.40 1.40Q439.80 1.40 431.60-2.10L431.60-2.10L431.60-2.10Q423.40-5.60 418.10-12L418.10-12L418.10-12Q412.80-18.40 410.30-27.40L410.30-27.40L410.30-27.40Q407.80-36.40 407.80-47.40L407.80-47.40L407.80-47.40Q407.80-60.60 411.30-70.80L411.30-70.80L411.30-70.80Q414.80-81 421.00-87.90L421.00-87.90L421.00-87.90Q427.20-94.80 435.60-98.40L435.60-98.40L435.60-98.40Q444.00-102 453.60-102L453.60-102L453.60-102Q463.00-102 469.50-98.40L469.50-98.40L469.50-98.40Q476.00-94.80 480.60-88.40L480.60-88.40ZM518.60-145L518.60-86.80L518.60-86.80Q524.40-94.40 532.50-97.80L532.50-97.80L532.50-97.80Q540.60-101.20 549.60-101.20L549.60-101.20L549.60-101.20Q565.00-101.20 571.90-91.90L571.90-91.90L571.90-91.90Q578.80-82.60 578.80-66.80L578.80-66.80L578.80 0L556.00 0L556.00-65.20L556.00-65.20Q556.00-73.60 553.00-78.50L553.00-78.50L553.00-78.50Q550.00-83.40 542.80-83.40L542.80-83.40L542.80-83.40Q538.60-83.40 534.30-81.20L534.30-81.20L534.30-81.20Q530.00-79 526.50-74.90L526.50-74.90L526.50-74.90Q523.00-70.80 520.80-65.20L520.80-65.20L520.80-65.20Q518.60-59.60 518.60-52.80L518.60-52.80L518.60 0L495.80 0L495.80-141L518.60-145ZM597.80-47.40L597.80-47.40Q597.80-60.80 601.50-71L601.50-71L601.50-71Q605.20-81.20 611.70-88.10L611.70-88.10L611.70-88.10Q618.20-95 627.00-98.50L627.00-98.50L627.00-98.50Q635.80-102 646.00-102L646.00-102L646.00-102Q655.00-102 661.30-99.80L661.30-99.80L661.30-99.80Q667.60-97.60 671.60-93.80L671.60-93.80L671.60-93.80Q675.60-90 677.50-84.80L677.50-84.80L677.50-84.80Q679.40-79.60 679.40-73.60L679.40-73.60L679.40-73.60Q679.40-66.40 675.40-59.90L675.40-59.90L675.40-59.90Q671.40-53.40 663.90-48.50L663.90-48.50L663.90-48.50Q656.40-43.60 645.80-40.70L645.80-40.70L645.80-40.70Q635.20-37.80 622.00-37.60L622.00-37.60L622.00-37.60Q622.60-33 623.90-28.90L623.90-28.90L623.90-28.90Q625.20-24.80 627.70-21.70L627.70-21.70L627.70-21.70Q630.20-18.60 634.20-16.80L634.20-16.80L634.20-16.80Q638.20-15 644.20-15L644.20-15L644.20-15Q648.60-15 653.60-16L653.60-16L653.60-16Q658.60-17 662.80-18.40L662.80-18.40L662.80-18.40Q667.80-20 672.60-22L672.60-22L678.60-7.80L678.60-7.80Q673.40-5.20 667.40-3.20L667.40-3.20L667.40-3.20Q662.20-1.40 655.40 0L655.40 0L655.40 0Q648.60 1.40 641.00 1.40L641.00 1.40L641.00 1.40Q629.40 1.40 621.20-2.10L621.20-2.10L621.20-2.10Q613.00-5.60 607.80-12L607.80-12L607.80-12Q602.60-18.40 600.20-27.40L600.20-27.40L600.20-27.40Q597.80-36.40 597.80-47.40L597.80-47.40ZM644.20-86.40L644.20-86.40Q637.60-86.40 633.30-83.30L633.30-83.30L633.30-83.30Q629.00-80.20 626.40-75.30L626.40-75.30L626.40-75.30Q623.80-70.40 622.70-64.30L622.70-64.30L622.70-64.30Q621.60-58.20 621.40-52L621.40-52L621.40-52Q631.00-52.40 637.70-54.50L637.70-54.50L637.70-54.50Q644.40-56.60 648.60-59.70L648.60-59.70L648.60-59.70Q652.80-62.80 654.70-66.40L654.70-66.40L654.70-66.40Q656.60-70 656.60-73.60L656.60-73.60L656.60-73.60Q656.60-79.40 653.20-82.90L653.20-82.90L653.20-82.90Q649.80-86.40 644.20-86.40L644.20-86.40ZM765.20-88.40L752.40-76.20L752.40-76.20Q749.40-79.60 746.30-82L746.30-82L746.30-82Q743.20-84.40 738.00-84.40L738.00-84.40L738.00-84.40Q735.00-84.40 731.30-83.50L731.30-83.50L731.30-83.50Q727.60-82.60 724.40-79.10L724.40-79.10L724.40-79.10Q721.20-75.60 719.10-68.80L719.10-68.80L719.10-68.80Q717.00-62 717.00-50.40L717.00-50.40L717.00-50.40Q717.00-38.60 719.10-31.70L719.10-31.70L719.10-31.70Q721.20-24.80 724.50-21L724.50-21L724.50-21Q727.80-17.20 731.60-16.10L731.60-16.10L731.60-16.10Q735.40-15 739.00-15L739.00-15L739.00-15Q741.80-15 744.80-15.50L744.80-15.50L744.80-15.50Q747.80-16 750.60-16.70L750.60-16.70L750.60-16.70Q753.40-17.40 755.50-18L755.50-18L755.50-18Q757.60-18.60 758.60-19L758.60-19L764.20-4.60L764.20-4.60Q763.60-4.40 761.50-3.40L761.50-3.40L761.50-3.40Q759.40-2.40 755.80-1.40L755.80-1.40L755.80-1.40Q752.20-0.40 747.20 0.50L747.20 0.50L747.20 0.50Q742.20 1.40 736.00 1.40L736.00 1.40L736.00 1.40Q724.40 1.40 716.20-2.10L716.20-2.10L716.20-2.10Q708.00-5.60 702.70-12L702.70-12L702.70-12Q697.40-18.40 694.90-27.40L694.90-27.40L694.90-27.40Q692.40-36.40 692.40-47.40L692.40-47.40L692.40-47.40Q692.40-60.60 695.90-70.80L695.90-70.80L695.90-70.80Q699.40-81 705.60-87.90L705.60-87.90L705.60-87.90Q711.80-94.80 720.20-98.40L720.20-98.40L720.20-98.40Q728.60-102 738.20-102L738.20-102L738.20-102Q747.60-102 754.10-98.40L754.10-98.40L754.10-98.40Q760.60-94.80 765.20-88.40L765.20-88.40ZM780.40-141L803.20-145L803.20-88L803.20-88Q804.80-90 807.30-92.30L807.30-92.30L807.30-92.30Q809.80-94.60 813.60-96.60L813.60-96.60L813.60-96.60Q817.40-98.60 822.40-100L822.40-100L822.40-100Q827.40-101.40 834.00-101.40L834.00-101.40L834.00-101.40Q840.20-101.40 845.60-99.60L845.60-99.60L845.60-99.60Q851.00-97.80 854.90-94.40L854.90-94.40L854.90-94.40Q858.80-91 861.10-86.10L861.10-86.10L861.10-86.10Q863.40-81.20 863.40-75L863.40-75L863.40-75Q863.40-66 859.70-60.20L859.70-60.20L859.70-60.20Q856.00-54.40 851.40-51L851.40-51L851.40-51Q846.20-47 839.40-44.60L839.40-44.60L867.40 0L841.60 0L812.80-49.80L812.60-51.80L812.60-51.80Q814.20-52.20 818.70-53.60L818.70-53.60L818.70-53.60Q823.20-55 828.00-57.60L828.00-57.60L828.00-57.60Q832.80-60.20 836.50-64.10L836.50-64.10L836.50-64.10Q840.20-68 840.20-73.40L840.20-73.40L840.20-73.40Q840.20-79.20 836.80-82.20L836.80-82.20L836.80-82.20Q833.40-85.20 827.80-85.20L827.80-85.20L827.80-85.20Q820.20-85.20 815.40-82.20L815.40-82.20L815.40-82.20Q810.60-79.20 807.90-75.40L807.90-75.40L807.90-75.40Q805.20-71.60 804.20-68.20L804.20-68.20L804.20-68.20Q803.20-64.80 803.20-64.20L803.20-64.20L803.20 0L780.40 0L780.40-141ZM956.40 0.80L956.40 0.80Q945.80 0.80 940.20-5.50L940.20-5.50L940.20-5.50Q934.60-11.80 934.60-21.80L934.60-21.80L934.60-99.60L957.40-99.60L957.40-23.80L957.40-23.80Q957.40-19.20 958.80-17.60L958.80-17.60L958.80-17.60Q960.20-16 963.00-16L963.00-16L963.00-16Q963.80-16 964.70-16L964.70-16L964.70-16Q965.60-16 966.40-16.20L966.40-16.20L966.40-16.20Q967.20-16.20 968.20-16.40L968.20-16.40L970.60-2L970.60-2Q969.20-1.20 967.00-0.60L967.00-0.60L967.00-0.60Q965.20 0 962.50 0.40L962.50 0.40L962.50 0.40Q959.80 0.80 956.40 0.80L956.40 0.80ZM946.40-144L946.40-144Q952.80-144 956.20-140.20L956.20-140.20L956.20-140.20Q959.60-136.40 959.60-130.40L959.60-130.40L959.60-130.40Q959.60-124.40 956.10-120.40L956.10-120.40L956.10-120.40Q952.60-116.40 945.80-116.40L945.80-116.40L945.80-116.40Q939.40-116.40 935.90-120.30L935.90-120.30L935.90-120.30Q932.40-124.20 932.40-129.80L932.40-129.80L932.40-129.80Q932.40-136 935.90-140L935.90-140L935.90-140Q939.40-144 946.40-144L946.40-144ZM1016.00-102L1016.00-102L1016.00-102Q1021.80-102 1027.40-100.80L1027.40-100.80L1027.40-100.80Q1033.00-99.60 1037.40-98L1037.40-98L1037.40-98Q1042.60-96.20 1047.00-94.20L1047.00-94.20L1040.20-78.60L1040.20-78.60Q1036.20-80.40 1032.20-81.80L1032.20-81.80L1032.20-81.80Q1028.80-83 1024.70-84.10L1024.70-84.10L1024.70-84.10Q1020.60-85.20 1016.60-85.20L1016.60-85.20L1016.60-85.20Q1012.00-85.20 1008.70-83L1008.70-83L1008.70-83Q1005.40-80.80 1005.40-76.40L1005.40-76.40L1005.40-76.40Q1005.40-65 1022.00-58.60L1022.00-58.60L1022.00-58.60Q1028.20-56.20 1033.20-53.50L1033.20-53.50L1033.20-53.50Q1038.20-50.80 1041.70-47.20L1041.70-47.20L1041.70-47.20Q1045.20-43.60 1047.00-38.90L1047.00-38.90L1047.00-38.90Q1048.80-34.20 1048.80-27.80L1048.80-27.80L1048.80-27.80Q1048.80-22.20 1046.50-16.80L1046.50-16.80L1046.50-16.80Q1044.20-11.40 1039.70-7.20L1039.70-7.20L1039.70-7.20Q1035.20-3 1028.70-0.50L1028.70-0.50L1028.70-0.50Q1022.20 2 1014.00 2L1014.00 2L1014.00 2Q1007.40 2 1001.00 0.50L1001.00 0.50L1001.00 0.50Q994.60-1 989.50-2.80L989.50-2.80L989.50-2.80Q984.40-4.60 981.40-6.20L981.40-6.20L978.40-7.60L985.80-24.40L988.40-23L988.40-23Q991.00-21.40 995.00-19.60L995.00-19.60L995.00-19.60Q999.00-17.80 1003.60-16.30L1003.60-16.30L1003.60-16.30Q1008.20-14.80 1012.00-14.80L1012.00-14.80L1012.00-14.80Q1019.00-14.80 1022.40-17.60L1022.40-17.60L1022.40-17.60Q1025.80-20.40 1025.80-25L1025.80-25L1025.80-25Q1025.80-30.20 1022.10-34.50L1022.10-34.50L1022.10-34.50Q1018.40-38.80 1011.00-41.60L1011.00-41.60L1011.00-41.60Q995.60-47.40 988.90-54.80L988.90-54.80L988.90-54.80Q982.20-62.20 982.20-74L982.20-74L982.20-74Q982.20-79.60 984.80-84.70L984.80-84.70L984.80-84.70Q987.40-89.80 991.90-93.70L991.90-93.70L991.90-93.70Q996.40-97.60 1002.60-99.80L1002.60-99.80L1002.60-99.80Q1008.80-102 1016.00-102ZM1179.20-50.80L1179.20-99.60L1202.00-99.60L1202.00-48.20L1202.00-48.20Q1202.00-36.20 1203.50-28.10L1203.50-28.10L1203.50-28.10Q1205.00-20 1206.80-15L1206.80-15L1206.80-15Q1209.00-9 1211.60-5.60L1211.60-5.60L1193.80 1.60L1193.80 1.60Q1191.40-0.60 1189.40-4L1189.40-4L1189.40-4Q1187.80-6.80 1186.10-10.90L1186.10-10.90L1186.10-10.90Q1184.40-15 1183.80-20.60L1183.80-20.60L1183.80-20.60Q1178.40-8.80 1168.60-3.80L1168.60-3.80L1168.60-3.80Q1158.80 1.20 1148.20 1.20L1148.20 1.20L1148.20 1.20Q1132.40 1.20 1125.70-8L1125.70-8L1125.70-8Q1119.00-17.20 1119.00-33.20L1119.00-33.20L1119.00-99.60L1141.80-99.60L1141.80-33.60L1141.80-33.60Q1141.80-25.20 1144.80-20.40L1144.80-20.40L1144.80-20.40Q1147.80-15.60 1155.00-15.60L1155.00-15.60L1155.00-15.60Q1159.40-15.60 1163.70-18.10L1163.70-18.10L1163.70-18.10Q1168.00-20.60 1171.50-25.20L1171.50-25.20L1171.50-25.20Q1175.00-29.80 1177.10-36.30L1177.10-36.30L1177.10-36.30Q1179.20-42.80 1179.20-50.80L1179.20-50.80ZM1314.40 0L1291.80 0L1291.80-64.60L1291.80-64.60Q1291.80-73 1288.80-78.10L1288.80-78.10L1288.80-78.10Q1285.80-83.20 1278.60-83.20L1278.60-83.20L1278.60-83.20Q1274.00-83.20 1269.70-80.90L1269.70-80.90L1269.70-80.90Q1265.40-78.60 1262.00-74.20L1262.00-74.20L1262.00-74.20Q1258.60-69.80 1256.50-63.50L1256.50-63.50L1256.50-63.50Q1254.40-57.20 1254.40-49.40L1254.40-49.40L1254.40 0L1231.60 0L1231.60-50.40L1231.60-50.40Q1231.60-62.40 1230.00-70.50L1230.00-70.50L1230.00-70.50Q1228.40-78.60 1226.60-83.60L1226.60-83.60L1226.60-83.60Q1224.40-89.40 1221.80-93L1221.80-93L1239.80-100.20L1239.80-100.20Q1241.80-98 1243.80-94.80L1243.80-94.80L1243.80-94.80Q1245.40-92 1247.00-87.90L1247.00-87.90L1247.00-87.90Q1248.60-83.80 1249.60-78.60L1249.60-78.60L1249.60-78.60Q1254.80-90.60 1264.60-95.90L1264.60-95.90L1264.60-95.90Q1274.40-101.20 1285.20-101.20L1285.20-101.20L1285.20-101.20Q1300.60-101.20 1307.50-91.90L1307.50-91.90L1307.50-91.90Q1314.40-82.60 1314.40-66.80L1314.40-66.80L1314.40 0ZM1429.60-5.60L1411.80 1.60L1411.80 1.60Q1411.40 1.40 1410.00-0.30L1410.00-0.30L1410.00-0.30Q1408.60-2 1406.90-5L1406.90-5L1406.90-5Q1405.20-8 1403.60-12.50L1403.60-12.50L1403.60-12.50Q1402.00-17 1401.60-23L1401.60-23L1401.60-23Q1398.20-11 1390.70-4.90L1390.70-4.90L1390.70-4.90Q1383.20 1.20 1370.40 1.20L1370.40 1.20L1370.40 1.20Q1361.00 1.20 1354.10-2.30L1354.10-2.30L1354.10-2.30Q1347.20-5.80 1342.60-12.30L1342.60-12.30L1342.60-12.30Q1338.00-18.80 1335.80-28L1335.80-28L1335.80-28Q1333.60-37.20 1333.60-48.40L1333.60-48.40L1333.60-48.40Q1333.60-59.80 1337.10-69.50L1337.10-69.50L1337.10-69.50Q1340.60-79.20 1346.90-86.20L1346.90-86.20L1346.90-86.20Q1353.20-93.20 1362.00-97.20L1362.00-97.20L1362.00-97.20Q1370.80-101.20 1381.40-101.20L1381.40-101.20L1381.40-101.20Q1385.00-101.20 1389.10-100.80L1389.10-100.80L1389.10-100.80Q1393.20-100.40 1397.20-99.80L1397.20-99.80L1397.20-145L1420.00-141L1420.00-48.20L1420.00-48.20Q1420.00-36.20 1421.40-28.30L1421.40-28.30L1421.40-28.30Q1422.80-20.40 1424.60-15.50L1424.60-15.50L1424.60-15.50Q1426.40-10.60 1427.90-8.40L1427.90-8.40L1427.90-8.40Q1429.40-6.20 1429.60-5.60L1429.60-5.60ZM1374.20-15L1374.20-15Q1379.20-15 1383.40-18.40L1383.40-18.40L1383.40-18.40Q1387.60-21.80 1390.70-27.30L1390.70-27.30L1390.70-27.30Q1393.80-32.80 1395.50-39.80L1395.50-39.80L1395.50-39.80Q1397.20-46.80 1397.20-54.20L1397.20-54.20L1397.20-83L1397.20-83Q1395.20-83.60 1391.20-84.40L1391.20-84.40L1391.20-84.40Q1387.20-85.20 1384.00-85.20L1384.00-85.20L1384.00-85.20Q1376.40-85.20 1371.50-82.60L1371.50-82.60L1371.50-82.60Q1366.60-80 1363.60-75.40L1363.60-75.40L1363.60-75.40Q1360.60-70.80 1359.40-64.40L1359.40-64.40L1359.40-64.40Q1358.20-58 1358.20-50.40L1358.20-50.40L1358.20-50.40Q1358.20-43.40 1358.60-37L1358.60-37L1358.60-37Q1359.00-30.60 1360.70-25.70L1360.70-25.70L1360.70-25.70Q1362.40-20.80 1365.60-17.90L1365.60-17.90L1365.60-17.90Q1368.80-15 1374.20-15L1374.20-15ZM1440.80-47.40L1440.80-47.40Q1440.80-60.80 1444.50-71L1444.50-71L1444.50-71Q1448.20-81.20 1454.70-88.10L1454.70-88.10L1454.70-88.10Q1461.20-95 1470.00-98.50L1470.00-98.50L1470.00-98.50Q1478.80-102 1489.00-102L1489.00-102L1489.00-102Q1498.00-102 1504.30-99.80L1504.30-99.80L1504.30-99.80Q1510.60-97.60 1514.60-93.80L1514.60-93.80L1514.60-93.80Q1518.60-90 1520.50-84.80L1520.50-84.80L1520.50-84.80Q1522.40-79.60 1522.40-73.60L1522.40-73.60L1522.40-73.60Q1522.40-66.40 1518.40-59.90L1518.40-59.90L1518.40-59.90Q1514.40-53.40 1506.90-48.50L1506.90-48.50L1506.90-48.50Q1499.40-43.60 1488.80-40.70L1488.80-40.70L1488.80-40.70Q1478.20-37.80 1465.00-37.60L1465.00-37.60L1465.00-37.60Q1465.60-33 1466.90-28.90L1466.90-28.90L1466.90-28.90Q1468.20-24.80 1470.70-21.70L1470.70-21.70L1470.70-21.70Q1473.20-18.60 1477.20-16.80L1477.20-16.80L1477.20-16.80Q1481.20-15 1487.20-15L1487.20-15L1487.20-15Q1491.60-15 1496.60-16L1496.60-16L1496.60-16Q1501.60-17 1505.80-18.40L1505.80-18.40L1505.80-18.40Q1510.80-20 1515.60-22L1515.60-22L1521.60-7.80L1521.60-7.80Q1516.40-5.20 1510.40-3.20L1510.40-3.20L1510.40-3.20Q1505.20-1.40 1498.40 0L1498.40 0L1498.40 0Q1491.60 1.40 1484.00 1.40L1484.00 1.40L1484.00 1.40Q1472.40 1.40 1464.20-2.10L1464.20-2.10L1464.20-2.10Q1456.00-5.60 1450.80-12L1450.80-12L1450.80-12Q1445.60-18.40 1443.20-27.40L1443.20-27.40L1443.20-27.40Q1440.80-36.40 1440.80-47.40L1440.80-47.40ZM1487.20-86.40L1487.20-86.40Q1480.60-86.40 1476.30-83.30L1476.30-83.30L1476.30-83.30Q1472.00-80.20 1469.40-75.30L1469.40-75.30L1469.40-75.30Q1466.80-70.40 1465.70-64.30L1465.70-64.30L1465.70-64.30Q1464.60-58.20 1464.40-52L1464.40-52L1464.40-52Q1474.00-52.40 1480.70-54.50L1480.70-54.50L1480.70-54.50Q1487.40-56.60 1491.60-59.70L1491.60-59.70L1491.60-59.70Q1495.80-62.80 1497.70-66.40L1497.70-66.40L1497.70-66.40Q1499.60-70 1499.60-73.60L1499.60-73.60L1499.60-73.60Q1499.60-79.40 1496.20-82.90L1496.20-82.90L1496.20-82.90Q1492.80-86.40 1487.20-86.40L1487.20-86.40ZM1586-78.80L1586-78.80Q1582.40-78.80 1578.80-77L1578.80-77L1578.80-77Q1575.20-75.20 1572.40-72.10L1572.40-72.10L1572.40-72.10Q1569.60-69 1567.80-64.60L1567.80-64.60L1567.80-64.60Q1566-60.20 1566-54.80L1566-54.80L1566 0L1543.20 0L1543.20-50.40L1543.20-50.40Q1543.20-62.40 1541.60-70.50L1541.60-70.50L1541.60-70.50Q1540-78.60 1538.20-83.60L1538.20-83.60L1538.20-83.60Q1536-89.40 1533.40-93L1533.40-93L1551.40-100.20L1551.40-100.20Q1553.20-98 1555.20-94.80L1555.20-94.80L1555.20-94.80Q1556.80-92 1558.40-88.20L1558.40-88.20L1558.40-88.20Q1560-84.40 1561-79.20L1561-79.20L1561-79.20Q1565-90.80 1572.60-95.90L1572.60-95.90L1572.60-95.90Q1580.20-101 1589.80-101L1589.80-101L1589.80-101Q1594.40-101 1598.40-99.90L1598.40-99.90L1598.40-99.90Q1602.40-98.80 1602.20-98.80L1602.20-98.80L1595.80-76.60L1595.80-76.60Q1596-76.60 1593.50-77.70L1593.50-77.70L1593.50-77.70Q1591-78.80 1586-78.80L1586-78.80ZM1756.20-5.60L1738.40 1.60L1738.40 1.60Q1738 1.40 1736.60-0.30L1736.60-0.30L1736.60-0.30Q1735.20-2 1733.50-5L1733.50-5L1733.50-5Q1731.80-8 1730.20-12.50L1730.20-12.50L1730.20-12.50Q1728.60-17 1728.20-23L1728.20-23L1728.20-23Q1724.80-11 1717.30-4.90L1717.30-4.90L1717.30-4.90Q1709.80 1.20 1697 1.20L1697 1.20L1697 1.20Q1687.60 1.20 1680.70-2.30L1680.70-2.30L1680.70-2.30Q1673.80-5.80 1669.20-12.30L1669.20-12.30L1669.20-12.30Q1664.60-18.80 1662.40-28L1662.40-28L1662.40-28Q1660.20-37.20 1660.20-48.40L1660.20-48.40L1660.20-48.40Q1660.20-59.80 1663.70-69.50L1663.70-69.50L1663.70-69.50Q1667.20-79.20 1673.50-86.20L1673.50-86.20L1673.50-86.20Q1679.80-93.20 1688.60-97.20L1688.60-97.20L1688.60-97.20Q1697.40-101.20 1708-101.20L1708-101.20L1708-101.20Q1711.60-101.20 1715.70-100.80L1715.70-100.80L1715.70-100.80Q1719.80-100.40 1723.80-99.80L1723.80-99.80L1723.80-145L1746.60-141L1746.60-48.20L1746.60-48.20Q1746.60-36.20 1748-28.30L1748-28.30L1748-28.30Q1749.40-20.40 1751.20-15.50L1751.20-15.50L1751.20-15.50Q1753-10.60 1754.50-8.40L1754.50-8.40L1754.50-8.40Q1756-6.20 1756.20-5.60L1756.20-5.60ZM1700.80-15L1700.80-15Q1705.80-15 1710-18.40L1710-18.40L1710-18.40Q1714.20-21.80 1717.30-27.30L1717.30-27.30L1717.30-27.30Q1720.40-32.80 1722.10-39.80L1722.10-39.80L1722.10-39.80Q1723.80-46.80 1723.80-54.20L1723.80-54.20L1723.80-83L1723.80-83Q1721.80-83.60 1717.80-84.40L1717.80-84.40L1717.80-84.40Q1713.80-85.20 1710.60-85.20L1710.60-85.20L1710.60-85.20Q1703-85.20 1698.10-82.60L1698.10-82.60L1698.10-82.60Q1693.20-80 1690.20-75.40L1690.20-75.40L1690.20-75.40Q1687.20-70.80 1686-64.40L1686-64.40L1686-64.40Q1684.80-58 1684.80-50.40L1684.80-50.40L1684.80-50.40Q1684.80-43.40 1685.20-37L1685.20-37L1685.20-37Q1685.60-30.60 1687.30-25.70L1687.30-25.70L1687.30-25.70Q1689-20.80 1692.20-17.90L1692.20-17.90L1692.20-17.90Q1695.40-15 1700.80-15L1700.80-15ZM1767.40-47.40L1767.40-47.40Q1767.40-60.80 1771.10-71L1771.10-71L1771.10-71Q1774.80-81.20 1781.30-88.10L1781.30-88.10L1781.30-88.10Q1787.80-95 1796.60-98.50L1796.60-98.50L1796.60-98.50Q1805.40-102 1815.60-102L1815.60-102L1815.60-102Q1824.60-102 1830.90-99.80L1830.90-99.80L1830.90-99.80Q1837.20-97.60 1841.20-93.80L1841.20-93.80L1841.20-93.80Q1845.20-90 1847.10-84.80L1847.10-84.80L1847.10-84.80Q1849-79.60 1849-73.60L1849-73.60L1849-73.60Q1849-66.40 1845-59.90L1845-59.90L1845-59.90Q1841-53.40 1833.50-48.50L1833.50-48.50L1833.50-48.50Q1826-43.60 1815.40-40.70L1815.40-40.70L1815.40-40.70Q1804.80-37.80 1791.60-37.60L1791.60-37.60L1791.60-37.60Q1792.20-33 1793.50-28.90L1793.50-28.90L1793.50-28.90Q1794.80-24.80 1797.30-21.70L1797.30-21.70L1797.30-21.70Q1799.80-18.60 1803.80-16.80L1803.80-16.80L1803.80-16.80Q1807.80-15 1813.80-15L1813.80-15L1813.80-15Q1818.20-15 1823.20-16L1823.20-16L1823.20-16Q1828.20-17 1832.40-18.40L1832.40-18.40L1832.40-18.40Q1837.40-20 1842.20-22L1842.20-22L1848.20-7.80L1848.20-7.80Q1843-5.20 1837-3.20L1837-3.20L1837-3.20Q1831.80-1.40 1825 0L1825 0L1825 0Q1818.20 1.40 1810.60 1.40L1810.60 1.40L1810.60 1.40Q1799 1.40 1790.80-2.10L1790.80-2.10L1790.80-2.10Q1782.60-5.60 1777.40-12L1777.40-12L1777.40-12Q1772.20-18.40 1769.80-27.40L1769.80-27.40L1769.80-27.40Q1767.40-36.40 1767.40-47.40L1767.40-47.40ZM1813.80-86.40L1813.80-86.40Q1807.20-86.40 1802.90-83.30L1802.90-83.30L1802.90-83.30Q1798.60-80.20 1796-75.30L1796-75.30L1796-75.30Q1793.40-70.40 1792.30-64.30L1792.30-64.30L1792.30-64.30Q1791.20-58.20 1791-52L1791-52L1791-52Q1800.60-52.40 1807.30-54.50L1807.30-54.50L1807.30-54.50Q1814-56.60 1818.20-59.70L1818.20-59.70L1818.20-59.70Q1822.40-62.80 1824.30-66.40L1824.30-66.40L1824.30-66.40Q1826.20-70 1826.20-73.60L1826.20-73.60L1826.20-73.60Q1826.20-79.40 1822.80-82.90L1822.80-82.90L1822.80-82.90Q1819.40-86.40 1813.80-86.40L1813.80-86.40ZM1923.60-99.60L1946.80-99.60L1947.20-98L1947.20-98Q1947.40-96.20 1947.80-93.30L1947.80-93.30L1947.80-93.30Q1948.20-90.40 1948.50-86.70L1948.50-86.70L1948.50-86.70Q1948.80-83 1948.80-79.20L1948.80-79.20L1948.80-79.20Q1948.80-57 1945.50-41.70L1945.50-41.70L1945.50-41.70Q1942.20-26.40 1935.50-16.90L1935.50-16.90L1935.50-16.90Q1928.80-7.40 1918.50-3.20L1918.50-3.20L1918.50-3.20Q1908.20 1 1894.20 1L1894.20 1L1894.20 1Q1878.40 1 1871.70-8.10L1871.70-8.10L1871.70-8.10Q1865-17.20 1865-33.20L1865-33.20L1865-99.60L1887.80-99.60L1887.80-33.80L1887.80-33.80Q1887.80-25.40 1890.80-20.20L1890.80-20.20L1890.80-20.20Q1893.80-15 1901-15L1901-15L1901-15Q1908.20-15 1913-20.40L1913-20.40L1913-20.40Q1917.80-25.80 1920.60-34.50L1920.60-34.50L1920.60-34.50Q1923.40-43.20 1924.60-54.30L1924.60-54.30L1924.60-54.30Q1925.80-65.40 1925.80-76.80L1925.80-76.80L1925.80-76.80Q1925.80-81 1925.50-85.10L1925.50-85.10L1925.50-85.10Q1925.20-89.20 1924.70-92.40L1924.70-92.40L1924.70-92.40Q1924.20-95.60 1924-97.60L1924-97.60L1923.60-99.60ZM1964.80-47.40L1964.80-47.40Q1964.80-60.80 1968.50-71L1968.50-71L1968.50-71Q1972.20-81.20 1978.70-88.10L1978.70-88.10L1978.70-88.10Q1985.20-95 1994-98.50L1994-98.50L1994-98.50Q2002.80-102 2013-102L2013-102L2013-102Q2022-102 2028.30-99.80L2028.30-99.80L2028.30-99.80Q2034.60-97.60 2038.60-93.80L2038.60-93.80L2038.60-93.80Q2042.60-90 2044.50-84.80L2044.50-84.80L2044.50-84.80Q2046.40-79.60 2046.40-73.60L2046.40-73.60L2046.40-73.60Q2046.40-66.40 2042.40-59.90L2042.40-59.90L2042.40-59.90Q2038.40-53.40 2030.90-48.50L2030.90-48.50L2030.90-48.50Q2023.40-43.60 2012.80-40.70L2012.80-40.70L2012.80-40.70Q2002.20-37.80 1989-37.60L1989-37.60L1989-37.60Q1989.60-33 1990.90-28.90L1990.90-28.90L1990.90-28.90Q1992.20-24.80 1994.70-21.70L1994.70-21.70L1994.70-21.70Q1997.20-18.60 2001.20-16.80L2001.20-16.80L2001.20-16.80Q2005.20-15 2011.20-15L2011.20-15L2011.20-15Q2015.60-15 2020.60-16L2020.60-16L2020.60-16Q2025.60-17 2029.80-18.40L2029.80-18.40L2029.80-18.40Q2034.80-20 2039.60-22L2039.60-22L2045.60-7.80L2045.60-7.80Q2040.40-5.20 2034.40-3.20L2034.40-3.20L2034.40-3.20Q2029.20-1.40 2022.40 0L2022.40 0L2022.40 0Q2015.60 1.40 2008 1.40L2008 1.40L2008 1.40Q1996.40 1.40 1988.20-2.10L1988.20-2.10L1988.20-2.10Q1980-5.60 1974.80-12L1974.80-12L1974.80-12Q1969.60-18.40 1967.20-27.40L1967.20-27.40L1967.20-27.40Q1964.80-36.40 1964.80-47.40L1964.80-47.40ZM2011.20-86.40L2011.20-86.40Q2004.60-86.40 2000.30-83.30L2000.30-83.30L2000.30-83.30Q1996-80.20 1993.40-75.30L1993.40-75.30L1993.40-75.30Q1990.80-70.40 1989.70-64.30L1989.70-64.30L1989.70-64.30Q1988.60-58.20 1988.40-52L1988.40-52L1988.40-52Q1998-52.40 2004.70-54.50L2004.70-54.50L2004.70-54.50Q2011.40-56.60 2015.60-59.70L2015.60-59.70L2015.60-59.70Q2019.80-62.80 2021.70-66.40L2021.70-66.40L2021.70-66.40Q2023.60-70 2023.60-73.60L2023.60-73.60L2023.60-73.60Q2023.60-79.40 2020.20-82.90L2020.20-82.90L2020.20-82.90Q2016.80-86.40 2011.20-86.40L2011.20-86.40ZM2086.60 0.80L2086.60 0.80Q2075.20 0.80 2069.80-5.50L2069.80-5.50L2069.80-5.50Q2064.40-11.80 2064.40-21.60L2064.40-21.60L2064.40-141L2087.20-145.20L2087.20-23.80L2087.20-23.80Q2087.20-19.20 2089-17.40L2089-17.40L2089-17.40Q2090.80-15.60 2094.20-15.60L2094.20-15.60L2094.20-15.60Q2096.20-15.60 2098.10-15.80L2098.10-15.80L2098.10-15.80Q2100-16 2101.60-16.40L2101.60-16.40L2101.60-16.40Q2103.40-16.80 2104.80-17.20L2104.80-17.20L2107.60-2.80L2107.60-2.80Q2105-1.80 2101.80-1L2101.80-1L2101.80-1Q2099-0.20 2095.20 0.30L2095.20 0.30L2095.20 0.30Q2091.40 0.80 2086.60 0.80L2086.60 0.80ZM2160.20-102L2160.20-102Q2183.20-102 2193.60-88.40L2193.60-88.40L2193.60-88.40Q2204-74.80 2204-51L2204-51L2204-51Q2204-39.80 2201.20-30.10L2201.20-30.10L2201.20-30.10Q2198.40-20.40 2192.70-13.30L2192.70-13.30L2192.70-13.30Q2187-6.20 2178.40-2.10L2178.40-2.10L2178.40-2.10Q2169.80 2 2158.40 2L2158.40 2L2158.40 2Q2147 2 2138.70-1.50L2138.70-1.50L2138.70-1.50Q2130.40-5 2125-11.60L2125-11.60L2125-11.60Q2119.60-18.20 2117.10-27.60L2117.10-27.60L2117.10-27.60Q2114.60-37 2114.60-48.80L2114.60-48.80L2114.60-48.80Q2114.60-60.20 2117.40-69.90L2117.40-69.90L2117.40-69.90Q2120.20-79.60 2125.90-86.70L2125.90-86.70L2125.90-86.70Q2131.60-93.80 2140.20-97.90L2140.20-97.90L2140.20-97.90Q2148.80-102 2160.20-102L2160.20-102ZM2158.20-85.20L2158.20-85.20Q2152.40-85.20 2148.70-82.60L2148.70-82.60L2148.70-82.60Q2145-80 2142.90-75.30L2142.90-75.30L2142.90-75.30Q2140.80-70.60 2140-64.30L2140-64.30L2140-64.30Q2139.20-58 2139.20-50.80L2139.20-50.80L2139.20-50.80Q2139.20-43.40 2140.10-36.80L2140.10-36.80L2140.10-36.80Q2141-30.20 2143.40-25.30L2143.40-25.30L2143.40-25.30Q2145.80-20.40 2149.90-17.60L2149.90-17.60L2149.90-17.60Q2154-14.80 2160.40-14.80L2160.40-14.80L2160.40-14.80Q2166.20-14.80 2169.90-17.40L2169.90-17.40L2169.90-17.40Q2173.60-20 2175.70-24.70L2175.70-24.70L2175.70-24.70Q2177.80-29.40 2178.60-35.60L2178.60-35.60L2178.60-35.60Q2179.40-41.80 2179.40-49L2179.40-49L2179.40-49Q2179.40-56.40 2178.50-63L2178.50-63L2178.50-63Q2177.60-69.60 2175.20-74.60L2175.20-74.60L2175.20-74.60Q2172.80-79.60 2168.70-82.40L2168.70-82.40L2168.70-82.40Q2164.60-85.20 2158.20-85.20L2158.20-85.20ZM2248.60 40.20L2225.80 44.20L2225.80-50.40L2225.80-50.40Q2225.80-62.40 2224.20-70.50L2224.20-70.50L2224.20-70.50Q2222.60-78.60 2220.80-83.60L2220.80-83.60L2220.80-83.60Q2218.60-89.40 2216-93L2216-93L2234-100.20L2234-100.20Q2236.40-97.80 2238.40-94.20L2238.40-94.20L2238.40-94.20Q2240-91.20 2241.60-86.90L2241.60-86.90L2241.60-86.90Q2243.20-82.60 2244-76.80L2244-76.80L2244-76.80Q2247.40-88.80 2254.80-95L2254.80-95L2254.80-95Q2262.20-101.20 2275.40-101.20L2275.40-101.20L2275.40-101.20Q2284.80-101.20 2291.70-97.70L2291.70-97.70L2291.70-97.70Q2298.60-94.20 2303.10-87.70L2303.10-87.70L2303.10-87.70Q2307.60-81.20 2309.80-72L2309.80-72L2309.80-72Q2312-62.80 2312-51.60L2312-51.60L2312-51.60Q2312-40.20 2308.60-30.50L2308.60-30.50L2308.60-30.50Q2305.20-20.80 2298.90-13.80L2298.90-13.80L2298.90-13.80Q2292.60-6.80 2283.80-2.80L2283.80-2.80L2283.80-2.80Q2275 1.20 2264.20 1.20L2264.20 1.20L2264.20 1.20Q2260.40 1.20 2256.50 0.80L2256.50 0.80L2256.50 0.80Q2252.60 0.40 2248.60 0L2248.60 0L2248.60 40.20ZM2271.60-85.20L2271.60-85.20Q2266.60-85.20 2262.40-81.80L2262.40-81.80L2262.40-81.80Q2258.20-78.40 2255.10-72.80L2255.10-72.80L2255.10-72.80Q2252-67.20 2250.30-60.20L2250.30-60.20L2250.30-60.20Q2248.60-53.20 2248.60-45.80L2248.60-45.80L2248.60-17L2248.60-17Q2250.60-16.40 2254.60-15.60L2254.60-15.60L2254.60-15.60Q2258.60-14.80 2261.60-14.80L2261.60-14.80L2261.60-14.80Q2269.20-14.80 2274.20-17.40L2274.20-17.40L2274.20-17.40Q2279.20-20 2282.20-24.60L2282.20-24.60L2282.20-24.60Q2285.20-29.20 2286.40-35.60L2286.40-35.60L2286.40-35.60Q2287.60-42 2287.60-49.60L2287.60-49.60L2287.60-49.60Q2287.60-56.60 2287.20-63L2287.20-63L2287.20-63Q2286.80-69.40 2285.10-74.40L2285.10-74.40L2285.10-74.40Q2283.40-79.40 2280.20-82.30L2280.20-82.30L2280.20-82.30Q2277-85.20 2271.60-85.20L2271.60-85.20ZM2469 0L2446.40 0L2446.40-65.20L2446.40-65.20Q2446.40-73.60 2443.80-78.50L2443.80-78.50L2443.80-78.50Q2441.20-83.40 2434.80-83.40L2434.80-83.40L2434.80-83.40Q2431-83.40 2427.10-81.30L2427.10-81.30L2427.10-81.30Q2423.20-79.20 2420-75.20L2420-75.20L2420-75.20Q2416.80-71.20 2414.80-65.60L2414.80-65.60L2414.80-65.60Q2412.80-60 2412.80-53.20L2412.80-53.20L2412.80 0L2390.20 0L2390.20-65.20L2390.20-65.20Q2390.20-73.60 2387.60-78.50L2387.60-78.50L2387.60-78.50Q2385-83.40 2378.60-83.40L2378.60-83.40L2378.60-83.40Q2374.60-83.40 2370.70-81.10L2370.70-81.10L2370.70-81.10Q2366.80-78.80 2363.70-74.40L2363.70-74.40L2363.70-74.40Q2360.60-70 2358.70-63.70L2358.70-63.70L2358.70-63.70Q2356.80-57.40 2356.80-49.60L2356.80-49.60L2356.80 0L2334 0L2334-50.40L2334-50.40Q2334-62.40 2332.40-70.50L2332.40-70.50L2332.40-70.50Q2330.80-78.60 2329-83.60L2329-83.60L2329-83.60Q2326.80-89.40 2324.20-93L2324.20-93L2342.20-100.20L2342.20-100.20Q2344.20-98 2346.20-94.80L2346.20-94.80L2346.20-94.80Q2347.80-92 2349.40-87.90L2349.40-87.90L2349.40-87.90Q2351-83.80 2352-78.60L2352-78.60L2352-78.60Q2357-90.60 2366.10-95.90L2366.10-95.90L2366.10-95.90Q2375.20-101.20 2385.40-101.20L2385.40-101.20L2385.40-101.20Q2395.60-101.20 2401.30-96L2401.30-96L2401.30-96Q2407-90.80 2409.80-82.60L2409.80-82.60L2409.80-82.60Q2415.20-92.60 2423.70-96.90L2423.70-96.90L2423.70-96.90Q2432.20-101.20 2441.60-101.20L2441.60-101.20L2441.60-101.20Q2449.40-101.20 2454.70-98.70L2454.70-98.70L2454.70-98.70Q2460-96.20 2463.10-91.70L2463.10-91.70L2463.10-91.70Q2466.20-87.20 2467.60-80.90L2467.60-80.90L2467.60-80.90Q2469-74.60 2469-66.80L2469-66.80L2469 0ZM2488-47.40L2488-47.40Q2488-60.80 2491.70-71L2491.70-71L2491.70-71Q2495.40-81.20 2501.90-88.10L2501.90-88.10L2501.90-88.10Q2508.40-95 2517.20-98.50L2517.20-98.50L2517.20-98.50Q2526-102 2536.20-102L2536.20-102L2536.20-102Q2545.20-102 2551.50-99.80L2551.50-99.80L2551.50-99.80Q2557.80-97.60 2561.80-93.80L2561.80-93.80L2561.80-93.80Q2565.80-90 2567.70-84.80L2567.70-84.80L2567.70-84.80Q2569.60-79.60 2569.60-73.60L2569.60-73.60L2569.60-73.60Q2569.60-66.40 2565.60-59.90L2565.60-59.90L2565.60-59.90Q2561.60-53.40 2554.10-48.50L2554.10-48.50L2554.10-48.50Q2546.60-43.60 2536-40.70L2536-40.70L2536-40.70Q2525.40-37.80 2512.20-37.60L2512.20-37.60L2512.20-37.60Q2512.80-33 2514.10-28.90L2514.10-28.90L2514.10-28.90Q2515.40-24.80 2517.90-21.70L2517.90-21.70L2517.90-21.70Q2520.40-18.60 2524.40-16.80L2524.40-16.80L2524.40-16.80Q2528.40-15 2534.40-15L2534.40-15L2534.40-15Q2538.80-15 2543.80-16L2543.80-16L2543.80-16Q2548.80-17 2553-18.40L2553-18.40L2553-18.40Q2558-20 2562.80-22L2562.80-22L2568.80-7.80L2568.80-7.80Q2563.60-5.20 2557.60-3.20L2557.60-3.20L2557.60-3.20Q2552.40-1.40 2545.60 0L2545.60 0L2545.60 0Q2538.80 1.40 2531.20 1.40L2531.20 1.40L2531.20 1.40Q2519.60 1.40 2511.40-2.10L2511.40-2.10L2511.40-2.10Q2503.20-5.60 2498-12L2498-12L2498-12Q2492.80-18.40 2490.40-27.40L2490.40-27.40L2490.40-27.40Q2488-36.40 2488-47.40L2488-47.40ZM2534.40-86.40L2534.40-86.40Q2527.80-86.40 2523.50-83.30L2523.50-83.30L2523.50-83.30Q2519.20-80.20 2516.60-75.30L2516.60-75.30L2516.60-75.30Q2514-70.40 2512.90-64.30L2512.90-64.30L2512.90-64.30Q2511.80-58.20 2511.60-52L2511.60-52L2511.60-52Q2521.20-52.40 2527.90-54.50L2527.90-54.50L2527.90-54.50Q2534.60-56.60 2538.80-59.70L2538.80-59.70L2538.80-59.70Q2543-62.80 2544.90-66.40L2544.90-66.40L2544.90-66.40Q2546.80-70 2546.80-73.60L2546.80-73.60L2546.80-73.60Q2546.80-79.40 2543.40-82.90L2543.40-82.90L2543.40-82.90Q2540-86.40 2534.40-86.40L2534.40-86.40ZM2673.20 0L2650.60 0L2650.60-64.60L2650.60-64.60Q2650.60-73 2647.60-78.10L2647.60-78.10L2647.60-78.10Q2644.60-83.20 2637.40-83.20L2637.40-83.20L2637.40-83.20Q2632.80-83.20 2628.50-80.90L2628.50-80.90L2628.50-80.90Q2624.20-78.60 2620.80-74.20L2620.80-74.20L2620.80-74.20Q2617.40-69.80 2615.30-63.50L2615.30-63.50L2615.30-63.50Q2613.20-57.20 2613.20-49.40L2613.20-49.40L2613.20 0L2590.40 0L2590.40-50.40L2590.40-50.40Q2590.40-62.40 2588.80-70.50L2588.80-70.50L2588.80-70.50Q2587.20-78.60 2585.40-83.60L2585.40-83.60L2585.40-83.60Q2583.20-89.40 2580.60-93L2580.60-93L2598.60-100.20L2598.60-100.20Q2600.60-98 2602.60-94.80L2602.60-94.80L2602.60-94.80Q2604.20-92 2605.80-87.90L2605.80-87.90L2605.80-87.90Q2607.40-83.80 2608.40-78.60L2608.40-78.60L2608.40-78.60Q2613.60-90.60 2623.40-95.90L2623.40-95.90L2623.40-95.90Q2633.20-101.20 2644-101.20L2644-101.20L2644-101.20Q2659.40-101.20 2666.30-91.90L2666.30-91.90L2666.30-91.90Q2673.20-82.60 2673.20-66.80L2673.20-66.80L2673.20 0ZM2687.40-83.40L2687.40-99.60L2705.40-99.60L2709.40-123L2728.20-127.20L2728.20-99.60L2752.80-99.60L2750-83.40L2728.20-83.40L2728.20-24.20L2728.20-24.20Q2728.20-19 2731-17.50L2731-17.50L2731-17.50Q2733.80-16 2737.20-16L2737.20-16L2737.20-16Q2740-16 2742.80-16.40L2742.80-16.40L2742.80-16.40Q2745.60-16.80 2747.80-17.40L2747.80-17.40L2747.80-17.40Q2750.40-18 2752.80-18.80L2752.80-18.80L2756.60-3.80L2754.80-3.20L2754.80-3.20Q2753-2.40 2749.50-1.50L2749.50-1.50L2749.50-1.50Q2746-0.60 2741.30 0.10L2741.30 0.10L2741.30 0.10Q2736.60 0.80 2731 0.80L2731 0.80L2731 0.80Q2725.40 0.80 2720.70-0.40L2720.70-0.40L2720.70-0.40Q2716-1.60 2712.60-4.30L2712.60-4.30L2712.60-4.30Q2709.20-7 2707.30-11.20L2707.30-11.20L2707.30-11.20Q2705.40-15.40 2705.40-21.60L2705.40-21.60L2705.40-83.40L2687.40-83.40Z" fill="#ccc"></path></g></g><style>text {
  font-size: 64px;
  font-family: Arial Black;
  dominant-baseline: central;
  text-anchor: middle;
}</style></svg>