<svg width="714.046630859375px" height="80.80000152587891px" xmlns="http://www.w3.org/2000/svg" viewBox="-107.0233154296875 34.599999237060544 714.046630859375 80.80000152587891" style="background: rgba(0, 0, 0, 0);" preserveAspectRatio="xMidYMid"><defs><filter id="editing-hole" x="-100%" y="-100%" width="300%" height="300%"><feFlood flood-color="#000" result="black"></feFlood><feMorphology operator="dilate" radius="2" in="SourceGraphic" result="erode"></feMorphology><feGaussianBlur in="erode" stdDeviation="4" result="blur"></feGaussianBlur><feOffset in="blur" dx="2" dy="2" result="offset"></feOffset><feComposite operator="atop" in="offset" in2="black" result="merge"></feComposite><feComposite operator="in" in="merge" in2="SourceGraphic" result="inner-shadow"></feComposite></filter></defs><g filter="url(#editing-hole)"><g transform="translate(-5.76896071434021, 92.5199966430664)"><path d="M18.61-22.72L16.35-20.02L16.35-20.02Q15.47-20.98 14.49-21.48L14.49-21.48L14.49-21.48Q13.50-21.98 12.21-21.98L12.21-21.98L12.21-21.98Q10.62-21.98 9.53-21.26L9.53-21.26L9.53-21.26Q8.44-20.54 7.77-19.26L7.77-19.26L7.77-19.26Q7.10-17.98 6.81-16.28L6.81-16.28L6.81-16.28Q6.51-14.58 6.51-12.62L6.51-12.62L6.51-12.62Q6.51-10.66 6.79-8.95L6.79-8.95L6.79-8.95Q7.07-7.25 7.75-5.96L7.75-5.96L7.75-5.96Q8.44-4.66 9.60-3.92L9.60-3.92L9.60-3.92Q10.77-3.18 12.54-3.18L12.54-3.18L12.54-3.18Q13.39-3.18 14.17-3.33L14.17-3.33L14.17-3.33Q14.95-3.48 15.60-3.64L15.60-3.64L15.60-3.64Q16.24-3.81 16.67-3.96L16.67-3.96L16.67-3.96Q17.09-4.11 17.20-4.14L17.20-4.14L18.24-1.04L17.76-0.85L17.76-0.85Q17.28-0.67 16.41-0.43L16.41-0.43L16.41-0.43Q15.54-0.18 14.34 0.02L14.34 0.02L14.34 0.02Q13.13 0.22 11.69 0.22L11.69 0.22L11.69 0.22Q6.73 0.22 4.24-2.94L4.24-2.94L4.24-2.94Q1.74-6.10 1.74-12.21L1.74-12.21L1.74-12.21Q1.74-15.13 2.40-17.56L2.40-17.56L2.40-17.56Q3.07-19.98 4.42-21.72L4.42-21.72L4.42-21.72Q5.77-23.46 7.83-24.42L7.83-24.42L7.83-24.42Q9.88-25.38 12.65-25.38L12.65-25.38L12.65-25.38Q14.87-25.38 16.30-24.57L16.30-24.57L16.30-24.57Q17.72-23.75 18.61-22.72L18.61-22.72ZM25.64 0.15L25.64 0.15Q23.68 0.15 22.64-1.02L22.64-1.02L22.64-1.02Q21.61-2.18 21.61-4.03L21.61-4.03L21.61-18.43L25.83-18.43L25.83-4.40L25.83-4.40Q25.83-3.55 26.09-3.26L26.09-3.26L26.09-3.26Q26.34-2.96 26.86-2.96L26.86-2.96L26.86-2.96Q27.01-2.96 27.18-2.96L27.18-2.96L27.18-2.96Q27.34-2.96 27.49-3.00L27.49-3.00L27.49-3.00Q27.64-3.00 27.82-3.03L27.82-3.03L28.27-0.37L28.27-0.37Q28.01-0.22 27.60-0.11L27.60-0.11L27.60-0.11Q27.27 0 26.77 0.07L26.77 0.07L26.77 0.07Q26.27 0.15 25.64 0.15L25.64 0.15ZM23.79-26.64L23.79-26.64Q24.97-26.64 25.60-25.94L25.60-25.94L25.60-25.94Q26.23-25.23 26.23-24.12L26.23-24.12L26.23-24.12Q26.23-23.01 25.59-22.27L25.59-22.27L25.59-22.27Q24.94-21.53 23.68-21.53L23.68-21.53L23.68-21.53Q22.50-21.53 21.85-22.26L21.85-22.26L21.85-22.26Q21.20-22.98 21.20-24.01L21.20-24.01L21.20-24.01Q21.20-25.16 21.85-25.90L21.85-25.90L21.85-25.90Q22.50-26.64 23.79-26.64L23.79-26.64ZM39.48-14.58L39.48-14.58Q38.81-14.58 38.15-14.24L38.15-14.24L38.15-14.24Q37.48-13.91 36.96-13.34L36.96-13.34L36.96-13.34Q36.45-12.76 36.11-11.95L36.11-11.95L36.11-11.95Q35.78-11.14 35.78-10.14L35.78-10.14L35.78 0L31.56 0L31.56-9.32L31.56-9.32Q31.56-11.54 31.27-13.04L31.27-13.04L31.27-13.04Q30.97-14.54 30.64-15.47L30.64-15.47L30.64-15.47Q30.23-16.54 29.75-17.20L29.75-17.20L33.08-18.54L33.08-18.54Q33.41-18.13 33.78-17.54L33.78-17.54L33.78-17.54Q34.08-17.02 34.37-16.32L34.37-16.32L34.37-16.32Q34.67-15.61 34.85-14.65L34.85-14.65L34.85-14.65Q35.59-16.80 37-17.74L37-17.74L37-17.74Q38.41-18.68 40.18-18.68L40.18-18.68L40.18-18.68Q41.03-18.68 41.77-18.48L41.77-18.48L41.77-18.48Q42.51-18.28 42.48-18.28L42.48-18.28L41.29-14.17L41.29-14.17Q41.33-14.17 40.87-14.37L40.87-14.37L40.87-14.37Q40.40-14.58 39.48-14.58L39.48-14.58ZM53.13-14.58L53.13-14.58Q52.47-14.58 51.80-14.24L51.80-14.24L51.80-14.24Q51.13-13.91 50.62-13.34L50.62-13.34L50.62-13.34Q50.10-12.76 49.77-11.95L49.77-11.95L49.77-11.95Q49.43-11.14 49.43-10.14L49.43-10.14L49.43 0L45.21 0L45.21-9.32L45.21-9.32Q45.21-11.54 44.92-13.04L44.92-13.04L44.92-13.04Q44.62-14.54 44.29-15.47L44.29-15.47L44.29-15.47Q43.88-16.54 43.40-17.20L43.40-17.20L46.73-18.54L46.73-18.54Q47.06-18.13 47.43-17.54L47.43-17.54L47.43-17.54Q47.73-17.02 48.03-16.32L48.03-16.32L48.03-16.32Q48.32-15.61 48.51-14.65L48.51-14.65L48.51-14.65Q49.25-16.80 50.65-17.74L50.65-17.74L50.65-17.74Q52.06-18.68 53.84-18.68L53.84-18.68L53.84-18.68Q54.69-18.68 55.43-18.48L55.43-18.48L55.43-18.48Q56.17-18.28 56.13-18.28L56.13-18.28L54.95-14.17L54.95-14.17Q54.98-14.17 54.52-14.37L54.52-14.37L54.52-14.37Q54.06-14.58 53.13-14.58L53.13-14.58ZM64.75-18.87L64.75-18.87Q69.00-18.87 70.93-16.35L70.93-16.35L70.93-16.35Q72.85-13.84 72.85-9.43L72.85-9.43L72.85-9.43Q72.85-7.36 72.33-5.57L72.33-5.57L72.33-5.57Q71.82-3.77 70.76-2.46L70.76-2.46L70.76-2.46Q69.71-1.15 68.12-0.39L68.12-0.39L68.12-0.39Q66.53 0.37 64.42 0.37L64.42 0.37L64.42 0.37Q62.31 0.37 60.77-0.28L60.77-0.28L60.77-0.28Q59.24-0.92 58.24-2.15L58.24-2.15L58.24-2.15Q57.24-3.37 56.78-5.11L56.78-5.11L56.78-5.11Q56.31-6.84 56.31-9.03L56.31-9.03L56.31-9.03Q56.31-11.14 56.83-12.93L56.83-12.93L56.83-12.93Q57.35-14.73 58.40-16.04L58.40-16.04L58.40-16.04Q59.46-17.35 61.05-18.11L61.05-18.11L61.05-18.11Q62.64-18.87 64.75-18.87L64.75-18.87ZM64.38-15.76L64.38-15.76Q63.31-15.76 62.62-15.28L62.62-15.28L62.62-15.28Q61.94-14.80 61.55-13.93L61.55-13.93L61.55-13.93Q61.16-13.06 61.01-11.90L61.01-11.90L61.01-11.90Q60.86-10.73 60.86-9.40L60.86-9.40L60.86-9.40Q60.86-8.03 61.03-6.81L61.03-6.81L61.03-6.81Q61.20-5.59 61.64-4.68L61.64-4.68L61.64-4.68Q62.09-3.77 62.84-3.26L62.84-3.26L62.84-3.26Q63.60-2.74 64.79-2.74L64.79-2.74L64.79-2.74Q65.86-2.74 66.54-3.22L66.54-3.22L66.54-3.22Q67.23-3.70 67.62-4.57L67.62-4.57L67.62-4.57Q68.01-5.44 68.15-6.59L68.15-6.59L68.15-6.59Q68.30-7.73 68.30-9.06L68.30-9.06L68.30-9.06Q68.30-10.43 68.14-11.65L68.14-11.65L68.14-11.65Q67.97-12.88 67.53-13.80L67.53-13.80L67.53-13.80Q67.08-14.73 66.32-15.24L66.32-15.24L66.32-15.24Q65.56-15.76 64.38-15.76L64.38-15.76ZM88.91-16.35L86.54-14.10L86.54-14.10Q85.99-14.73 85.41-15.17L85.41-15.17L85.41-15.17Q84.84-15.61 83.88-15.61L83.88-15.61L83.88-15.61Q83.32-15.61 82.64-15.45L82.64-15.45L82.64-15.45Q81.95-15.28 81.36-14.63L81.36-14.63L81.36-14.63Q80.77-13.99 80.38-12.73L80.38-12.73L80.38-12.73Q79.99-11.47 79.99-9.32L79.99-9.32L79.99-9.32Q79.99-7.14 80.38-5.86L80.38-5.86L80.38-5.86Q80.77-4.59 81.38-3.88L81.38-3.88L81.38-3.88Q81.99-3.18 82.69-2.98L82.69-2.98L82.69-2.98Q83.40-2.77 84.06-2.77L84.06-2.77L84.06-2.77Q84.58-2.77 85.14-2.87L85.14-2.87L85.14-2.87Q85.69-2.96 86.21-3.09L86.21-3.09L86.21-3.09Q86.73-3.22 87.12-3.33L87.12-3.33L87.12-3.33Q87.50-3.44 87.69-3.51L87.69-3.51L88.73-0.85L88.73-0.85Q88.61-0.81 88.23-0.63L88.23-0.63L88.23-0.63Q87.84-0.44 87.17-0.26L87.17-0.26L87.17-0.26Q86.51-0.07 85.58 0.09L85.58 0.09L85.58 0.09Q84.66 0.26 83.51 0.26L83.51 0.26L83.51 0.26Q81.36 0.26 79.85-0.39L79.85-0.39L79.85-0.39Q78.33-1.04 77.35-2.22L77.35-2.22L77.35-2.22Q76.37-3.40 75.91-5.07L75.91-5.07L75.91-5.07Q75.44-6.73 75.44-8.77L75.44-8.77L75.44-8.77Q75.44-11.21 76.09-13.10L76.09-13.10L76.09-13.10Q76.74-14.98 77.88-16.26L77.88-16.26L77.88-16.26Q79.03-17.54 80.59-18.20L80.59-18.20L80.59-18.20Q82.14-18.87 83.92-18.87L83.92-18.87L83.92-18.87Q85.66-18.87 86.86-18.20L86.86-18.20L86.86-18.20Q88.06-17.54 88.91-16.35L88.91-16.35ZM95.94-26.82L95.94-16.06L95.94-16.06Q97.01-17.46 98.51-18.09L98.51-18.09L98.51-18.09Q100.01-18.72 101.68-18.72L101.68-18.72L101.68-18.72Q104.52-18.72 105.80-17.00L105.80-17.00L105.80-17.00Q107.08-15.28 107.08-12.36L107.08-12.36L107.08 0L102.86 0L102.86-12.06L102.86-12.06Q102.86-13.62 102.30-14.52L102.30-14.52L102.30-14.52Q101.75-15.43 100.42-15.43L100.42-15.43L100.42-15.43Q99.64-15.43 98.85-15.02L98.85-15.02L98.85-15.02Q98.05-14.61 97.40-13.86L97.40-13.86L97.40-13.86Q96.75-13.10 96.35-12.06L96.35-12.06L96.35-12.06Q95.94-11.03 95.94-9.77L95.94-9.77L95.94 0L91.72 0L91.72-26.08L95.94-26.82ZM110.59-8.77L110.59-8.77Q110.59-11.25 111.28-13.13L111.28-13.13L111.28-13.13Q111.96-15.02 113.16-16.30L113.16-16.30L113.16-16.30Q114.37-17.57 116.00-18.22L116.00-18.22L116.00-18.22Q117.62-18.87 119.51-18.87L119.51-18.87L119.51-18.87Q121.17-18.87 122.34-18.46L122.34-18.46L122.34-18.46Q123.51-18.06 124.25-17.35L124.25-17.35L124.25-17.35Q124.99-16.65 125.34-15.69L125.34-15.69L125.34-15.69Q125.69-14.73 125.69-13.62L125.69-13.62L125.69-13.62Q125.69-12.28 124.95-11.08L124.95-11.08L124.95-11.08Q124.21-9.88 122.82-8.97L122.82-8.97L122.82-8.97Q121.43-8.07 119.47-7.53L119.47-7.53L119.47-7.53Q117.51-6.99 115.07-6.96L115.07-6.96L115.07-6.96Q115.18-6.10 115.42-5.35L115.42-5.35L115.42-5.35Q115.66-4.59 116.12-4.01L116.12-4.01L116.12-4.01Q116.59-3.44 117.33-3.11L117.33-3.11L117.33-3.11Q118.07-2.77 119.18-2.77L119.18-2.77L119.18-2.77Q119.99-2.77 120.92-2.96L120.92-2.96L120.92-2.96Q121.84-3.15 122.62-3.40L122.62-3.40L122.62-3.40Q123.54-3.70 124.43-4.07L124.43-4.07L125.54-1.44L125.54-1.44Q124.58-0.96 123.47-0.59L123.47-0.59L123.47-0.59Q122.51-0.26 121.25 0L121.25 0L121.25 0Q119.99 0.26 118.59 0.26L118.59 0.26L118.59 0.26Q116.44 0.26 114.92-0.39L114.92-0.39L114.92-0.39Q113.41-1.04 112.44-2.22L112.44-2.22L112.44-2.22Q111.48-3.40 111.04-5.07L111.04-5.07L111.04-5.07Q110.59-6.73 110.59-8.77L110.59-8.77ZM119.18-15.98L119.18-15.98Q117.96-15.98 117.16-15.41L117.16-15.41L117.16-15.41Q116.36-14.84 115.88-13.93L115.88-13.93L115.88-13.93Q115.40-13.02 115.20-11.90L115.20-11.90L115.20-11.90Q115.00-10.77 114.96-9.62L114.96-9.62L114.96-9.62Q116.73-9.69 117.97-10.08L117.97-10.08L117.97-10.08Q119.21-10.47 119.99-11.04L119.99-11.04L119.99-11.04Q120.77-11.62 121.12-12.28L121.12-12.28L121.12-12.28Q121.47-12.95 121.47-13.62L121.47-13.62L121.47-13.62Q121.47-14.69 120.84-15.34L120.84-15.34L120.84-15.34Q120.21-15.98 119.18-15.98L119.18-15.98ZM141.56-16.35L139.19-14.10L139.19-14.10Q138.64-14.73 138.07-15.17L138.07-15.17L138.07-15.17Q137.49-15.61 136.53-15.61L136.53-15.61L136.53-15.61Q135.97-15.61 135.29-15.45L135.29-15.45L135.29-15.45Q134.61-15.28 134.01-14.63L134.01-14.63L134.01-14.63Q133.42-13.99 133.03-12.73L133.03-12.73L133.03-12.73Q132.65-11.47 132.65-9.32L132.65-9.32L132.65-9.32Q132.65-7.14 133.03-5.86L133.03-5.86L133.03-5.86Q133.42-4.59 134.03-3.88L134.03-3.88L134.03-3.88Q134.64-3.18 135.35-2.98L135.35-2.98L135.35-2.98Q136.05-2.77 136.72-2.77L136.72-2.77L136.72-2.77Q137.23-2.77 137.79-2.87L137.79-2.87L137.79-2.87Q138.34-2.96 138.86-3.09L138.86-3.09L138.86-3.09Q139.38-3.22 139.77-3.33L139.77-3.33L139.77-3.33Q140.16-3.44 140.34-3.51L140.34-3.51L141.38-0.85L141.38-0.85Q141.27-0.81 140.88-0.63L140.88-0.63L140.88-0.63Q140.49-0.44 139.82-0.26L139.82-0.26L139.82-0.26Q139.16-0.07 138.23 0.09L138.23 0.09L138.23 0.09Q137.31 0.26 136.16 0.26L136.16 0.26L136.16 0.26Q134.01 0.26 132.50-0.39L132.50-0.39L132.50-0.39Q130.98-1.04 130.00-2.22L130.00-2.22L130.00-2.22Q129.02-3.40 128.56-5.07L128.56-5.07L128.56-5.07Q128.09-6.73 128.09-8.77L128.09-8.77L128.09-8.77Q128.09-11.21 128.74-13.10L128.74-13.10L128.74-13.10Q129.39-14.98 130.54-16.26L130.54-16.26L130.54-16.26Q131.68-17.54 133.24-18.20L133.24-18.20L133.24-18.20Q134.79-18.87 136.57-18.87L136.57-18.87L136.57-18.87Q138.31-18.87 139.51-18.20L139.51-18.20L139.51-18.20Q140.71-17.54 141.56-16.35L141.56-16.35ZM144.37-26.08L148.59-26.82L148.59-16.28L148.59-16.28Q148.89-16.65 149.35-17.08L149.35-17.08L149.35-17.08Q149.81-17.50 150.52-17.87L150.52-17.87L150.52-17.87Q151.22-18.24 152.14-18.50L152.14-18.50L152.14-18.50Q153.07-18.76 154.29-18.76L154.29-18.76L154.29-18.76Q155.44-18.76 156.44-18.43L156.44-18.43L156.44-18.43Q157.44-18.09 158.16-17.46L158.16-17.46L158.16-17.46Q158.88-16.84 159.30-15.93L159.30-15.93L159.30-15.93Q159.73-15.02 159.73-13.88L159.73-13.88L159.73-13.88Q159.73-12.21 159.04-11.14L159.04-11.14L159.04-11.14Q158.36-10.06 157.51-9.43L157.51-9.43L157.51-9.43Q156.55-8.70 155.29-8.25L155.29-8.25L160.47 0L155.70 0L150.37-9.21L150.33-9.58L150.33-9.58Q150.63-9.66 151.46-9.92L151.46-9.92L151.46-9.92Q152.29-10.17 153.18-10.66L153.18-10.66L153.18-10.66Q154.07-11.14 154.75-11.86L154.75-11.86L154.75-11.86Q155.44-12.58 155.44-13.58L155.44-13.58L155.44-13.58Q155.44-14.65 154.81-15.21L154.81-15.21L154.81-15.21Q154.18-15.76 153.14-15.76L153.14-15.76L153.14-15.76Q151.74-15.76 150.85-15.21L150.85-15.21L150.85-15.21Q149.96-14.65 149.46-13.95L149.46-13.95L149.46-13.95Q148.96-13.25 148.78-12.62L148.78-12.62L148.78-12.62Q148.59-11.99 148.59-11.88L148.59-11.88L148.59 0L144.37 0L144.37-26.08ZM176.93 0.15L176.93 0.15Q174.97 0.15 173.94-1.02L173.94-1.02L173.94-1.02Q172.90-2.18 172.90-4.03L172.90-4.03L172.90-18.43L177.12-18.43L177.12-4.40L177.12-4.40Q177.12-3.55 177.38-3.26L177.38-3.26L177.38-3.26Q177.64-2.96 178.16-2.96L178.16-2.96L178.16-2.96Q178.30-2.96 178.47-2.96L178.47-2.96L178.47-2.96Q178.64-2.96 178.78-3.00L178.78-3.00L178.78-3.00Q178.93-3.00 179.12-3.03L179.12-3.03L179.56-0.37L179.56-0.37Q179.30-0.22 178.90-0.11L178.90-0.11L178.90-0.11Q178.56 0 178.06 0.07L178.06 0.07L178.06 0.07Q177.56 0.15 176.93 0.15L176.93 0.15ZM175.08-26.64L175.08-26.64Q176.27-26.64 176.90-25.94L176.90-25.94L176.90-25.94Q177.53-25.23 177.53-24.12L177.53-24.12L177.53-24.12Q177.53-23.01 176.88-22.27L176.88-22.27L176.88-22.27Q176.23-21.53 174.97-21.53L174.97-21.53L174.97-21.53Q173.79-21.53 173.14-22.26L173.14-22.26L173.14-22.26Q172.49-22.98 172.49-24.01L172.49-24.01L172.49-24.01Q172.49-25.16 173.14-25.90L173.14-25.90L173.14-25.90Q173.79-26.64 175.08-26.64L175.08-26.64ZM187.96-18.87L187.96-18.87L187.96-18.87Q189.03-18.87 190.07-18.65L190.07-18.65L190.07-18.65Q191.11-18.43 191.92-18.13L191.92-18.13L191.92-18.13Q192.88-17.80 193.70-17.43L193.70-17.43L192.44-14.54L192.44-14.54Q191.70-14.87 190.96-15.13L190.96-15.13L190.96-15.13Q190.33-15.35 189.57-15.56L189.57-15.56L189.57-15.56Q188.81-15.76 188.07-15.76L188.07-15.76L188.07-15.76Q187.22-15.76 186.61-15.35L186.61-15.35L186.61-15.35Q186.00-14.95 186.00-14.13L186.00-14.13L186.00-14.13Q186.00-12.02 189.07-10.84L189.07-10.84L189.07-10.84Q190.22-10.40 191.14-9.90L191.14-9.90L191.14-9.90Q192.07-9.40 192.71-8.73L192.71-8.73L192.71-8.73Q193.36-8.07 193.70-7.20L193.70-7.20L193.70-7.20Q194.03-6.33 194.03-5.14L194.03-5.14L194.03-5.14Q194.03-4.11 193.60-3.11L193.60-3.11L193.60-3.11Q193.18-2.11 192.34-1.33L192.34-1.33L192.34-1.33Q191.51-0.55 190.31-0.09L190.31-0.09L190.31-0.09Q189.11 0.37 187.59 0.37L187.59 0.37L187.59 0.37Q186.37 0.37 185.19 0.09L185.19 0.09L185.19 0.09Q184.00-0.18 183.06-0.52L183.06-0.52L183.06-0.52Q182.11-0.85 181.56-1.15L181.56-1.15L181.00-1.41L182.37-4.51L182.85-4.25L182.85-4.25Q183.34-3.96 184.08-3.63L184.08-3.63L184.08-3.63Q184.82-3.29 185.67-3.02L185.67-3.02L185.67-3.02Q186.52-2.74 187.22-2.74L187.22-2.74L187.22-2.74Q188.52-2.74 189.14-3.26L189.14-3.26L189.14-3.26Q189.77-3.77 189.77-4.63L189.77-4.63L189.77-4.63Q189.77-5.59 189.09-6.38L189.09-6.38L189.09-6.38Q188.40-7.18 187.04-7.70L187.04-7.70L187.04-7.70Q184.19-8.77 182.95-10.14L182.95-10.14L182.95-10.14Q181.71-11.51 181.71-13.69L181.71-13.69L181.71-13.69Q181.71-14.73 182.19-15.67L182.19-15.67L182.19-15.67Q182.67-16.61 183.50-17.33L183.50-17.33L183.50-17.33Q184.33-18.06 185.48-18.46L185.48-18.46L185.48-18.46Q186.63-18.87 187.96-18.87ZM218.15-9.40L218.15-18.43L222.37-18.43L222.37-8.92L222.37-8.92Q222.37-6.70 222.65-5.20L222.65-5.20L222.65-5.20Q222.93-3.70 223.26-2.77L223.26-2.77L223.26-2.77Q223.67-1.66 224.15-1.04L224.15-1.04L220.85 0.30L220.85 0.30Q220.41-0.11 220.04-0.74L220.04-0.74L220.04-0.74Q219.74-1.26 219.43-2.02L219.43-2.02L219.43-2.02Q219.11-2.77 219.00-3.81L219.00-3.81L219.00-3.81Q218.00-1.63 216.19-0.70L216.19-0.70L216.19-0.70Q214.38 0.22 212.42 0.22L212.42 0.22L212.42 0.22Q209.49 0.22 208.25-1.48L208.25-1.48L208.25-1.48Q207.02-3.18 207.02-6.14L207.02-6.14L207.02-18.43L211.23-18.43L211.23-6.22L211.23-6.22Q211.23-4.66 211.79-3.77L211.79-3.77L211.79-3.77Q212.34-2.89 213.68-2.89L213.68-2.89L213.68-2.89Q214.49-2.89 215.28-3.35L215.28-3.35L215.28-3.35Q216.08-3.81 216.73-4.66L216.73-4.66L216.73-4.66Q217.38-5.51 217.76-6.72L217.76-6.72L217.76-6.72Q218.15-7.92 218.15-9.40L218.15-9.40ZM243.16 0L238.98 0L238.98-11.95L238.98-11.95Q238.98-13.50 238.43-14.45L238.43-14.45L238.43-14.45Q237.87-15.39 236.54-15.39L236.54-15.39L236.54-15.39Q235.69-15.39 234.89-14.97L234.89-14.97L234.89-14.97Q234.10-14.54 233.47-13.73L233.47-13.73L233.47-13.73Q232.84-12.91 232.45-11.75L232.45-11.75L232.45-11.75Q232.06-10.58 232.06-9.14L232.06-9.14L232.06 0L227.85 0L227.85-9.32L227.85-9.32Q227.85-11.54 227.55-13.04L227.55-13.04L227.55-13.04Q227.25-14.54 226.92-15.47L226.92-15.47L226.92-15.47Q226.51-16.54 226.03-17.20L226.03-17.20L229.36-18.54L229.36-18.54Q229.73-18.13 230.10-17.54L230.10-17.54L230.10-17.54Q230.40-17.02 230.69-16.26L230.69-16.26L230.69-16.26Q230.99-15.50 231.18-14.54L231.18-14.54L231.18-14.54Q232.14-16.76 233.95-17.74L233.95-17.74L233.95-17.74Q235.76-18.72 237.76-18.72L237.76-18.72L237.76-18.72Q240.61-18.72 241.89-17.00L241.89-17.00L241.89-17.00Q243.16-15.28 243.16-12.36L243.16-12.36L243.16 0ZM264.48-1.04L261.18 0.30L261.18 0.30Q261.11 0.26 260.85-0.06L260.85-0.06L260.85-0.06Q260.59-0.37 260.28-0.92L260.28-0.92L260.28-0.92Q259.96-1.48 259.67-2.31L259.67-2.31L259.67-2.31Q259.37-3.15 259.30-4.25L259.30-4.25L259.30-4.25Q258.67-2.03 257.28-0.91L257.28-0.91L257.28-0.91Q255.89 0.22 253.52 0.22L253.52 0.22L253.52 0.22Q251.78 0.22 250.51-0.43L250.51-0.43L250.51-0.43Q249.23-1.07 248.38-2.28L248.38-2.28L248.38-2.28Q247.53-3.48 247.12-5.18L247.12-5.18L247.12-5.18Q246.72-6.88 246.72-8.95L246.72-8.95L246.72-8.95Q246.72-11.06 247.36-12.86L247.36-12.86L247.36-12.86Q248.01-14.65 249.18-15.95L249.18-15.95L249.18-15.95Q250.34-17.24 251.97-17.98L251.97-17.98L251.97-17.98Q253.60-18.72 255.56-18.72L255.56-18.72L255.56-18.72Q256.22-18.72 256.98-18.65L256.98-18.65L256.98-18.65Q257.74-18.57 258.48-18.46L258.48-18.46L258.48-26.82L262.70-26.08L262.70-8.92L262.70-8.92Q262.70-6.70 262.96-5.24L262.96-5.24L262.96-5.24Q263.22-3.77 263.55-2.87L263.55-2.87L263.55-2.87Q263.88-1.96 264.16-1.55L264.16-1.55L264.16-1.55Q264.44-1.15 264.48-1.04L264.48-1.04ZM254.23-2.77L254.23-2.77Q255.15-2.77 255.93-3.40L255.93-3.40L255.93-3.40Q256.71-4.03 257.28-5.05L257.28-5.05L257.28-5.05Q257.85-6.07 258.17-7.36L258.17-7.36L258.17-7.36Q258.48-8.66 258.48-10.03L258.48-10.03L258.48-15.35L258.48-15.35Q258.11-15.47 257.37-15.61L257.37-15.61L257.37-15.61Q256.63-15.76 256.04-15.76L256.04-15.76L256.04-15.76Q254.63-15.76 253.73-15.28L253.73-15.28L253.73-15.28Q252.82-14.80 252.27-13.95L252.27-13.95L252.27-13.95Q251.71-13.10 251.49-11.91L251.49-11.91L251.49-11.91Q251.27-10.73 251.27-9.32L251.27-9.32L251.27-9.32Q251.27-8.03 251.34-6.84L251.34-6.84L251.34-6.84Q251.41-5.66 251.73-4.75L251.73-4.75L251.73-4.75Q252.04-3.85 252.64-3.31L252.64-3.31L252.64-3.31Q253.23-2.77 254.23-2.77L254.23-2.77ZM266.55-8.77L266.55-8.77Q266.55-11.25 267.23-13.13L267.23-13.13L267.23-13.13Q267.92-15.02 269.12-16.30L269.12-16.30L269.12-16.30Q270.32-17.57 271.95-18.22L271.95-18.22L271.95-18.22Q273.58-18.87 275.46-18.87L275.46-18.87L275.46-18.87Q277.13-18.87 278.30-18.46L278.30-18.46L278.30-18.46Q279.46-18.06 280.20-17.35L280.20-17.35L280.20-17.35Q280.94-16.65 281.29-15.69L281.29-15.69L281.29-15.69Q281.64-14.73 281.64-13.62L281.64-13.62L281.64-13.62Q281.64-12.28 280.90-11.08L280.90-11.08L280.90-11.08Q280.16-9.88 278.78-8.97L278.78-8.97L278.78-8.97Q277.39-8.07 275.43-7.53L275.43-7.53L275.43-7.53Q273.47-6.99 271.02-6.96L271.02-6.96L271.02-6.96Q271.14-6.10 271.38-5.35L271.38-5.35L271.38-5.35Q271.62-4.59 272.08-4.01L272.08-4.01L272.08-4.01Q272.54-3.44 273.28-3.11L273.28-3.11L273.28-3.11Q274.02-2.77 275.13-2.77L275.13-2.77L275.13-2.77Q275.95-2.77 276.87-2.96L276.87-2.96L276.87-2.96Q277.80-3.15 278.57-3.40L278.57-3.40L278.57-3.40Q279.50-3.70 280.39-4.07L280.39-4.07L281.50-1.44L281.50-1.44Q280.53-0.96 279.42-0.59L279.42-0.59L279.42-0.59Q278.46-0.26 277.20 0L277.20 0L277.20 0Q275.95 0.26 274.54 0.26L274.54 0.26L274.54 0.26Q272.39 0.26 270.88-0.39L270.88-0.39L270.88-0.39Q269.36-1.04 268.40-2.22L268.40-2.22L268.40-2.22Q267.44-3.40 266.99-5.07L266.99-5.07L266.99-5.07Q266.55-6.73 266.55-8.77L266.55-8.77ZM275.13-15.98L275.13-15.98Q273.91-15.98 273.12-15.41L273.12-15.41L273.12-15.41Q272.32-14.84 271.84-13.93L271.84-13.93L271.84-13.93Q271.36-13.02 271.15-11.90L271.15-11.90L271.15-11.90Q270.95-10.77 270.91-9.62L270.91-9.62L270.91-9.62Q272.69-9.69 273.93-10.08L273.93-10.08L273.93-10.08Q275.17-10.47 275.95-11.04L275.95-11.04L275.95-11.04Q276.72-11.62 277.07-12.28L277.07-12.28L277.07-12.28Q277.43-12.95 277.43-13.62L277.43-13.62L277.43-13.62Q277.43-14.69 276.80-15.34L276.80-15.34L276.80-15.34Q276.17-15.98 275.13-15.98L275.13-15.98ZM293.41-14.58L293.41-14.58Q292.74-14.58 292.08-14.24L292.08-14.24L292.08-14.24Q291.41-13.91 290.89-13.34L290.89-13.34L290.89-13.34Q290.38-12.76 290.04-11.95L290.04-11.95L290.04-11.95Q289.71-11.14 289.71-10.14L289.71-10.14L289.71 0L285.49 0L285.49-9.32L285.49-9.32Q285.49-11.54 285.20-13.04L285.20-13.04L285.20-13.04Q284.90-14.54 284.57-15.47L284.57-15.47L284.57-15.47Q284.16-16.54 283.68-17.20L283.68-17.20L287.01-18.54L287.01-18.54Q287.34-18.13 287.71-17.54L287.71-17.54L287.71-17.54Q288.01-17.02 288.30-16.32L288.30-16.32L288.30-16.32Q288.60-15.61 288.78-14.65L288.78-14.65L288.78-14.65Q289.52-16.80 290.93-17.74L290.93-17.74L290.93-17.74Q292.34-18.68 294.11-18.68L294.11-18.68L294.11-18.68Q294.96-18.68 295.70-18.48L295.70-18.48L295.70-18.48Q296.44-18.28 296.41-18.28L296.41-18.28L295.22-14.17L295.22-14.17Q295.26-14.17 294.80-14.37L294.80-14.37L294.80-14.37Q294.33-14.58 293.41-14.58L293.41-14.58ZM324.90-1.04L321.60 0.30L321.60 0.30Q321.53 0.26 321.27-0.06L321.27-0.06L321.27-0.06Q321.01-0.37 320.70-0.92L320.70-0.92L320.70-0.92Q320.38-1.48 320.09-2.31L320.09-2.31L320.09-2.31Q319.79-3.15 319.72-4.25L319.72-4.25L319.72-4.25Q319.09-2.03 317.70-0.91L317.70-0.91L317.70-0.91Q316.31 0.22 313.94 0.22L313.94 0.22L313.94 0.22Q312.21 0.22 310.93-0.43L310.93-0.43L310.93-0.43Q309.65-1.07 308.80-2.28L308.80-2.28L308.80-2.28Q307.95-3.48 307.54-5.18L307.54-5.18L307.54-5.18Q307.14-6.88 307.14-8.95L307.14-8.95L307.14-8.95Q307.14-11.06 307.78-12.86L307.78-12.86L307.78-12.86Q308.43-14.65 309.60-15.95L309.60-15.95L309.60-15.95Q310.76-17.24 312.39-17.98L312.39-17.98L312.39-17.98Q314.02-18.72 315.98-18.72L315.98-18.72L315.98-18.72Q316.65-18.72 317.40-18.65L317.40-18.65L317.40-18.65Q318.16-18.57 318.90-18.46L318.90-18.46L318.90-26.82L323.12-26.08L323.12-8.92L323.12-8.92Q323.12-6.70 323.38-5.24L323.38-5.24L323.38-5.24Q323.64-3.77 323.97-2.87L323.97-2.87L323.97-2.87Q324.31-1.96 324.58-1.55L324.58-1.55L324.58-1.55Q324.86-1.15 324.90-1.04L324.90-1.04ZM314.65-2.77L314.65-2.77Q315.57-2.77 316.35-3.40L316.35-3.40L316.35-3.40Q317.13-4.03 317.70-5.05L317.70-5.05L317.70-5.05Q318.27-6.07 318.59-7.36L318.59-7.36L318.59-7.36Q318.90-8.66 318.90-10.03L318.90-10.03L318.90-15.35L318.90-15.35Q318.53-15.47 317.79-15.61L317.79-15.61L317.79-15.61Q317.05-15.76 316.46-15.76L316.46-15.76L316.46-15.76Q315.06-15.76 314.15-15.28L314.15-15.28L314.15-15.28Q313.24-14.80 312.69-13.95L312.69-13.95L312.69-13.95Q312.13-13.10 311.91-11.91L311.91-11.91L311.91-11.91Q311.69-10.73 311.69-9.32L311.69-9.32L311.69-9.32Q311.69-8.03 311.76-6.84L311.76-6.84L311.76-6.84Q311.84-5.66 312.15-4.75L312.15-4.75L312.15-4.75Q312.46-3.85 313.06-3.31L313.06-3.31L313.06-3.31Q313.65-2.77 314.65-2.77L314.65-2.77ZM326.97-8.77L326.97-8.77Q326.97-11.25 327.65-13.13L327.65-13.13L327.65-13.13Q328.34-15.02 329.54-16.30L329.54-16.30L329.54-16.30Q330.74-17.57 332.37-18.22L332.37-18.22L332.37-18.22Q334.00-18.87 335.89-18.87L335.89-18.87L335.89-18.87Q337.55-18.87 338.72-18.46L338.72-18.46L338.72-18.46Q339.88-18.06 340.62-17.35L340.62-17.35L340.62-17.35Q341.36-16.65 341.71-15.69L341.71-15.69L341.71-15.69Q342.06-14.73 342.06-13.62L342.06-13.62L342.06-13.62Q342.06-12.28 341.32-11.08L341.32-11.08L341.32-11.08Q340.58-9.88 339.20-8.97L339.20-8.97L339.20-8.97Q337.81-8.07 335.85-7.53L335.85-7.53L335.85-7.53Q333.89-6.99 331.45-6.96L331.45-6.96L331.45-6.96Q331.56-6.10 331.80-5.35L331.80-5.35L331.80-5.35Q332.04-4.59 332.50-4.01L332.50-4.01L332.50-4.01Q332.96-3.44 333.70-3.11L333.70-3.11L333.70-3.11Q334.44-2.77 335.55-2.77L335.55-2.77L335.55-2.77Q336.37-2.77 337.29-2.96L337.29-2.96L337.29-2.96Q338.22-3.15 338.99-3.40L338.99-3.40L338.99-3.40Q339.92-3.70 340.81-4.07L340.81-4.07L341.92-1.44L341.92-1.44Q340.95-0.96 339.84-0.59L339.84-0.59L339.84-0.59Q338.88-0.26 337.63 0L337.63 0L337.63 0Q336.37 0.26 334.96 0.26L334.96 0.26L334.96 0.26Q332.81 0.26 331.30-0.39L331.30-0.39L331.30-0.39Q329.78-1.04 328.82-2.22L328.82-2.22L328.82-2.22Q327.86-3.40 327.41-5.07L327.41-5.07L327.41-5.07Q326.97-6.73 326.97-8.77L326.97-8.77ZM335.55-15.98L335.55-15.98Q334.33-15.98 333.54-15.41L333.54-15.41L333.54-15.41Q332.74-14.84 332.26-13.93L332.26-13.93L332.26-13.93Q331.78-13.02 331.58-11.90L331.58-11.90L331.58-11.90Q331.37-10.77 331.33-9.62L331.33-9.62L331.33-9.62Q333.11-9.69 334.35-10.08L334.35-10.08L334.35-10.08Q335.59-10.47 336.37-11.04L336.37-11.04L336.37-11.04Q337.14-11.62 337.50-12.28L337.50-12.28L337.50-12.28Q337.85-12.95 337.85-13.62L337.85-13.62L337.85-13.62Q337.85-14.69 337.22-15.34L337.22-15.34L337.22-15.34Q336.59-15.98 335.55-15.98L335.55-15.98ZM355.87-18.43L360.16-18.43L360.23-18.13L360.23-18.13Q360.27-17.80 360.34-17.26L360.34-17.26L360.34-17.26Q360.42-16.72 360.47-16.04L360.47-16.04L360.47-16.04Q360.53-15.35 360.53-14.65L360.53-14.65L360.53-14.65Q360.53-10.54 359.92-7.71L359.92-7.71L359.92-7.71Q359.31-4.88 358.07-3.13L358.07-3.13L358.07-3.13Q356.83-1.37 354.92-0.59L354.92-0.59L354.92-0.59Q353.02 0.18 350.43 0.18L350.43 0.18L350.43 0.18Q347.50 0.18 346.26-1.50L346.26-1.50L346.26-1.50Q345.02-3.18 345.02-6.14L345.02-6.14L345.02-18.43L349.24-18.43L349.24-6.25L349.24-6.25Q349.24-4.70 349.80-3.74L349.80-3.74L349.80-3.74Q350.35-2.77 351.68-2.77L351.68-2.77L351.68-2.77Q353.02-2.77 353.90-3.77L353.90-3.77L353.90-3.77Q354.79-4.77 355.31-6.38L355.31-6.38L355.31-6.38Q355.83-7.99 356.05-10.05L356.05-10.05L356.05-10.05Q356.27-12.10 356.27-14.21L356.27-14.21L356.27-14.21Q356.27-14.98 356.22-15.74L356.22-15.74L356.22-15.74Q356.16-16.50 356.07-17.09L356.07-17.09L356.07-17.09Q355.98-17.69 355.94-18.06L355.94-18.06L355.87-18.43ZM363.49-8.77L363.49-8.77Q363.49-11.25 364.17-13.13L364.17-13.13L364.17-13.13Q364.86-15.02 366.06-16.30L366.06-16.30L366.06-16.30Q367.26-17.57 368.89-18.22L368.89-18.22L368.89-18.22Q370.52-18.87 372.40-18.87L372.40-18.87L372.40-18.87Q374.07-18.87 375.24-18.46L375.24-18.46L375.24-18.46Q376.40-18.06 377.14-17.35L377.14-17.35L377.14-17.35Q377.88-16.65 378.23-15.69L378.23-15.69L378.23-15.69Q378.58-14.73 378.58-13.62L378.58-13.62L378.58-13.62Q378.58-12.28 377.84-11.08L377.84-11.08L377.84-11.08Q377.10-9.88 375.72-8.97L375.72-8.97L375.72-8.97Q374.33-8.07 372.37-7.53L372.37-7.53L372.37-7.53Q370.41-6.99 367.96-6.96L367.96-6.96L367.96-6.96Q368.08-6.10 368.32-5.35L368.32-5.35L368.32-5.35Q368.56-4.59 369.02-4.01L369.02-4.01L369.02-4.01Q369.48-3.44 370.22-3.11L370.22-3.11L370.22-3.11Q370.96-2.77 372.07-2.77L372.07-2.77L372.07-2.77Q372.89-2.77 373.81-2.96L373.81-2.96L373.81-2.96Q374.74-3.15 375.51-3.40L375.51-3.40L375.51-3.40Q376.44-3.70 377.33-4.07L377.33-4.07L378.44-1.44L378.44-1.44Q377.47-0.96 376.36-0.59L376.36-0.59L376.36-0.59Q375.40-0.26 374.14 0L374.14 0L374.14 0Q372.89 0.26 371.48 0.26L371.48 0.26L371.48 0.26Q369.33 0.26 367.82-0.39L367.82-0.39L367.82-0.39Q366.30-1.04 365.34-2.22L365.34-2.22L365.34-2.22Q364.38-3.40 363.93-5.07L363.93-5.07L363.93-5.07Q363.49-6.73 363.49-8.77L363.49-8.77ZM372.07-15.98L372.07-15.98Q370.85-15.98 370.06-15.41L370.06-15.41L370.06-15.41Q369.26-14.84 368.78-13.93L368.78-13.93L368.78-13.93Q368.30-13.02 368.09-11.90L368.09-11.90L368.09-11.90Q367.89-10.77 367.85-9.62L367.85-9.62L367.85-9.62Q369.63-9.69 370.87-10.08L370.87-10.08L370.87-10.08Q372.11-10.47 372.89-11.04L372.89-11.04L372.89-11.04Q373.66-11.62 374.01-12.28L374.01-12.28L374.01-12.28Q374.37-12.95 374.37-13.62L374.37-13.62L374.37-13.62Q374.37-14.69 373.74-15.34L373.74-15.34L373.74-15.34Q373.11-15.98 372.07-15.98L372.07-15.98ZM386.02 0.15L386.02 0.15Q383.91 0.15 382.91-1.02L382.91-1.02L382.91-1.02Q381.91-2.18 381.91-4.00L381.91-4.00L381.91-26.08L386.13-26.86L386.13-4.40L386.13-4.40Q386.13-3.55 386.46-3.22L386.46-3.22L386.46-3.22Q386.80-2.89 387.43-2.89L387.43-2.89L387.43-2.89Q387.80-2.89 388.15-2.92L388.15-2.92L388.15-2.92Q388.50-2.96 388.80-3.03L388.80-3.03L388.80-3.03Q389.13-3.11 389.39-3.18L389.39-3.18L389.91-0.52L389.91-0.52Q389.42-0.33 388.83-0.18L388.83-0.18L388.83-0.18Q388.31-0.04 387.61 0.06L387.61 0.06L387.61 0.06Q386.91 0.15 386.02 0.15L386.02 0.15ZM399.64-18.87L399.64-18.87Q403.89-18.87 405.82-16.35L405.82-16.35L405.82-16.35Q407.74-13.84 407.74-9.43L407.74-9.43L407.74-9.43Q407.74-7.36 407.22-5.57L407.22-5.57L407.22-5.57Q406.70-3.77 405.65-2.46L405.65-2.46L405.65-2.46Q404.59-1.15 403.00-0.39L403.00-0.39L403.00-0.39Q401.41 0.37 399.30 0.37L399.30 0.37L399.30 0.37Q397.19 0.37 395.66-0.28L395.66-0.28L395.66-0.28Q394.12-0.92 393.12-2.15L393.12-2.15L393.12-2.15Q392.13-3.37 391.66-5.11L391.66-5.11L391.66-5.11Q391.20-6.84 391.20-9.03L391.20-9.03L391.20-9.03Q391.20-11.14 391.72-12.93L391.72-12.93L391.72-12.93Q392.24-14.73 393.29-16.04L393.29-16.04L393.29-16.04Q394.35-17.35 395.94-18.11L395.94-18.11L395.94-18.11Q397.53-18.87 399.64-18.87L399.64-18.87ZM399.27-15.76L399.27-15.76Q398.19-15.76 397.51-15.28L397.51-15.28L397.51-15.28Q396.82-14.80 396.44-13.93L396.44-13.93L396.44-13.93Q396.05-13.06 395.90-11.90L395.90-11.90L395.90-11.90Q395.75-10.73 395.75-9.40L395.75-9.40L395.75-9.40Q395.75-8.03 395.92-6.81L395.92-6.81L395.92-6.81Q396.08-5.59 396.53-4.68L396.53-4.68L396.53-4.68Q396.97-3.77 397.73-3.26L397.73-3.26L397.73-3.26Q398.49-2.74 399.67-2.74L399.67-2.74L399.67-2.74Q400.75-2.74 401.43-3.22L401.43-3.22L401.43-3.22Q402.12-3.70 402.50-4.57L402.50-4.57L402.50-4.57Q402.89-5.44 403.04-6.59L403.04-6.59L403.04-6.59Q403.19-7.73 403.19-9.06L403.19-9.06L403.19-9.06Q403.19-10.43 403.02-11.65L403.02-11.65L403.02-11.65Q402.86-12.88 402.41-13.80L402.41-13.80L402.41-13.80Q401.97-14.73 401.21-15.24L401.21-15.24L401.21-15.24Q400.45-15.76 399.27-15.76L399.27-15.76ZM415.99 7.44L411.77 8.18L411.77-9.32L411.77-9.32Q411.77-11.54 411.48-13.04L411.48-13.04L411.48-13.04Q411.18-14.54 410.85-15.47L410.85-15.47L410.85-15.47Q410.44-16.54 409.96-17.20L409.96-17.20L413.29-18.54L413.29-18.54Q413.73-18.09 414.10-17.43L414.10-17.43L414.10-17.43Q414.40-16.87 414.70-16.08L414.70-16.08L414.70-16.08Q414.99-15.28 415.14-14.21L415.14-14.21L415.14-14.21Q415.77-16.43 417.14-17.57L417.14-17.57L417.14-17.57Q418.51-18.72 420.95-18.72L420.95-18.72L420.95-18.72Q422.69-18.72 423.96-18.07L423.96-18.07L423.96-18.07Q425.24-17.43 426.07-16.22L426.07-16.22L426.07-16.22Q426.91-15.02 427.31-13.32L427.31-13.32L427.31-13.32Q427.72-11.62 427.72-9.55L427.72-9.55L427.72-9.55Q427.72-7.44 427.09-5.64L427.09-5.64L427.09-5.64Q426.46-3.85 425.30-2.55L425.30-2.55L425.30-2.55Q424.13-1.26 422.50-0.52L422.50-0.52L422.50-0.52Q420.87 0.22 418.88 0.22L418.88 0.22L418.88 0.22Q418.17 0.22 417.45 0.15L417.45 0.15L417.45 0.15Q416.73 0.07 415.99 0L415.99 0L415.99 7.44ZM420.25-15.76L420.25-15.76Q419.32-15.76 418.54-15.13L418.54-15.13L418.54-15.13Q417.77-14.50 417.19-13.47L417.19-13.47L417.19-13.47Q416.62-12.43 416.31-11.14L416.31-11.14L416.31-11.14Q415.99-9.84 415.99-8.47L415.99-8.47L415.99-3.15L415.99-3.15Q416.36-3.03 417.10-2.89L417.10-2.89L417.10-2.89Q417.84-2.74 418.40-2.74L418.40-2.74L418.40-2.74Q419.80-2.74 420.73-3.22L420.73-3.22L420.73-3.22Q421.65-3.70 422.21-4.55L422.21-4.55L422.21-4.55Q422.76-5.40 422.98-6.59L422.98-6.59L422.98-6.59Q423.21-7.77 423.21-9.18L423.21-9.18L423.21-9.18Q423.21-10.47 423.13-11.65L423.13-11.65L423.13-11.65Q423.06-12.84 422.74-13.76L422.74-13.76L422.74-13.76Q422.43-14.69 421.84-15.23L421.84-15.23L421.84-15.23Q421.24-15.76 420.25-15.76L420.25-15.76ZM456.76 0L452.58 0L452.58-12.06L452.58-12.06Q452.58-13.62 452.10-14.52L452.10-14.52L452.10-14.52Q451.62-15.43 450.44-15.43L450.44-15.43L450.44-15.43Q449.73-15.43 449.01-15.04L449.01-15.04L449.01-15.04Q448.29-14.65 447.70-13.91L447.70-13.91L447.70-13.91Q447.11-13.17 446.74-12.14L446.74-12.14L446.74-12.14Q446.37-11.10 446.37-9.84L446.37-9.84L446.37 0L442.19 0L442.19-12.06L442.19-12.06Q442.19-13.62 441.71-14.52L441.71-14.52L441.71-14.52Q441.22-15.43 440.04-15.43L440.04-15.43L440.04-15.43Q439.30-15.43 438.58-15.00L438.58-15.00L438.58-15.00Q437.86-14.58 437.28-13.76L437.28-13.76L437.28-13.76Q436.71-12.95 436.36-11.78L436.36-11.78L436.36-11.78Q436.01-10.62 436.01-9.18L436.01-9.18L436.01 0L431.79 0L431.79-9.32L431.79-9.32Q431.79-11.54 431.49-13.04L431.49-13.04L431.49-13.04Q431.20-14.54 430.86-15.47L430.86-15.47L430.86-15.47Q430.46-16.54 429.98-17.20L429.98-17.20L433.31-18.54L433.31-18.54Q433.68-18.13 434.05-17.54L434.05-17.54L434.05-17.54Q434.34-17.02 434.64-16.26L434.64-16.26L434.64-16.26Q434.93-15.50 435.12-14.54L435.12-14.54L435.12-14.54Q436.04-16.76 437.73-17.74L437.73-17.74L437.73-17.74Q439.41-18.72 441.30-18.72L441.30-18.72L441.30-18.72Q443.19-18.72 444.24-17.76L444.24-17.76L444.24-17.76Q445.29-16.80 445.81-15.28L445.81-15.28L445.81-15.28Q446.81-17.13 448.38-17.93L448.38-17.93L448.38-17.93Q449.96-18.72 451.70-18.72L451.70-18.72L451.70-18.72Q453.14-18.72 454.12-18.26L454.12-18.26L454.12-18.26Q455.10-17.80 455.67-16.96L455.67-16.96L455.67-16.96Q456.25-16.13 456.51-14.97L456.51-14.97L456.51-14.97Q456.76-13.80 456.76-12.36L456.76-12.36L456.76 0ZM460.28-8.77L460.28-8.77Q460.28-11.25 460.96-13.13L460.96-13.13L460.96-13.13Q461.65-15.02 462.85-16.30L462.85-16.30L462.85-16.30Q464.05-17.57 465.68-18.22L465.68-18.22L465.68-18.22Q467.31-18.87 469.20-18.87L469.20-18.87L469.20-18.87Q470.86-18.87 472.03-18.46L472.03-18.46L472.03-18.46Q473.19-18.06 473.93-17.35L473.93-17.35L473.93-17.35Q474.67-16.65 475.02-15.69L475.02-15.69L475.02-15.69Q475.38-14.73 475.38-13.62L475.38-13.62L475.38-13.62Q475.38-12.28 474.64-11.08L474.64-11.08L474.64-11.08Q473.90-9.88 472.51-8.97L472.51-8.97L472.51-8.97Q471.12-8.07 469.16-7.53L469.16-7.53L469.16-7.53Q467.20-6.99 464.76-6.96L464.76-6.96L464.76-6.96Q464.87-6.10 465.11-5.35L465.11-5.35L465.11-5.35Q465.35-4.59 465.81-4.01L465.81-4.01L465.81-4.01Q466.27-3.44 467.01-3.11L467.01-3.11L467.01-3.11Q467.75-2.77 468.86-2.77L468.86-2.77L468.86-2.77Q469.68-2.77 470.60-2.96L470.60-2.96L470.60-2.96Q471.53-3.15 472.30-3.40L472.30-3.40L472.30-3.40Q473.23-3.70 474.12-4.07L474.12-4.07L475.23-1.44L475.23-1.44Q474.27-0.96 473.16-0.59L473.16-0.59L473.16-0.59Q472.19-0.26 470.94 0L470.94 0L470.94 0Q469.68 0.26 468.27 0.26L468.27 0.26L468.27 0.26Q466.13 0.26 464.61-0.39L464.61-0.39L464.61-0.39Q463.09-1.04 462.13-2.22L462.13-2.22L462.13-2.22Q461.17-3.40 460.72-5.07L460.72-5.07L460.72-5.07Q460.28-6.73 460.28-8.77L460.28-8.77ZM468.86-15.98L468.86-15.98Q467.64-15.98 466.85-15.41L466.85-15.41L466.85-15.41Q466.05-14.84 465.57-13.93L465.57-13.93L465.57-13.93Q465.09-13.02 464.89-11.90L464.89-11.90L464.89-11.90Q464.68-10.77 464.65-9.62L464.65-9.62L464.65-9.62Q466.42-9.69 467.66-10.08L467.66-10.08L467.66-10.08Q468.90-10.47 469.68-11.04L469.68-11.04L469.68-11.04Q470.45-11.62 470.81-12.28L470.81-12.28L470.81-12.28Q471.16-12.95 471.16-13.62L471.16-13.62L471.16-13.62Q471.16-14.69 470.53-15.34L470.53-15.34L470.53-15.34Q469.90-15.98 468.86-15.98L468.86-15.98ZM494.54 0L490.36 0L490.36-11.95L490.36-11.95Q490.36-13.50 489.81-14.45L489.81-14.45L489.81-14.45Q489.25-15.39 487.92-15.39L487.92-15.39L487.92-15.39Q487.07-15.39 486.27-14.97L486.27-14.97L486.27-14.97Q485.48-14.54 484.85-13.73L484.85-13.73L484.85-13.73Q484.22-12.91 483.83-11.75L483.83-11.75L483.83-11.75Q483.44-10.58 483.44-9.14L483.44-9.14L483.44 0L479.22 0L479.22-9.32L479.22-9.32Q479.22-11.54 478.93-13.04L478.93-13.04L478.93-13.04Q478.63-14.54 478.30-15.47L478.30-15.47L478.30-15.47Q477.89-16.54 477.41-17.20L477.41-17.20L480.74-18.54L480.74-18.54Q481.11-18.13 481.48-17.54L481.48-17.54L481.48-17.54Q481.78-17.02 482.07-16.26L482.07-16.26L482.07-16.26Q482.37-15.50 482.55-14.54L482.55-14.54L482.55-14.54Q483.52-16.76 485.33-17.74L485.33-17.74L485.33-17.74Q487.14-18.72 489.14-18.72L489.14-18.72L489.14-18.72Q491.99-18.72 493.27-17.00L493.27-17.00L493.27-17.00Q494.54-15.28 494.54-12.36L494.54-12.36L494.54 0ZM497.17-15.43L497.17-18.43L500.50-18.43L501.24-22.75L504.72-23.53L504.72-18.43L509.27-18.43L508.75-15.43L504.72-15.43L504.72-4.48L504.72-4.48Q504.72-3.51 505.23-3.24L505.23-3.24L505.23-3.24Q505.75-2.96 506.38-2.96L506.38-2.96L506.38-2.96Q506.90-2.96 507.42-3.03L507.42-3.03L507.42-3.03Q507.94-3.11 508.34-3.22L508.34-3.22L508.34-3.22Q508.82-3.33 509.27-3.48L509.27-3.48L509.97-0.70L509.64-0.59L509.64-0.59Q509.30-0.44 508.66-0.28L508.66-0.28L508.66-0.28Q508.01-0.11 507.14 0.02L507.14 0.02L507.14 0.02Q506.27 0.15 505.23 0.15L505.23 0.15L505.23 0.15Q504.20 0.15 503.33-0.07L503.33-0.07L503.33-0.07Q502.46-0.30 501.83-0.80L501.83-0.80L501.83-0.80Q501.20-1.29 500.85-2.07L500.85-2.07L500.85-2.07Q500.50-2.85 500.50-4.00L500.50-4.00L500.50-15.43L497.17-15.43Z" fill="#ccc"></path></g></g><style>text {
  font-size: 64px;
  font-family: Arial Black;
  dominant-baseline: central;
  text-anchor: middle;
}</style></svg>